<svg xmlns="http://www.w3.org/2000/svg" version="1.1" xmlns:xlink="http://www.w3.org/1999/xlink" xmlns:svgjs="http://svgjs.dev/svgjs" viewBox="0 0 800 800" opacity="1"><defs><linearGradient x1="50%" y1="0%" x2="50%" y2="100%" id="ccchaos-grad"><stop stop-color="hsl(162, 100%, 58%)" stop-opacity="1" offset="0%"></stop><stop stop-color="hsl(270, 73%, 53%)" stop-opacity="1" offset="100%"></stop></linearGradient></defs><g stroke-width="2.5" stroke="url(#ccchaos-grad)" fill="none" stroke-linecap="round"><path d="M395.37 130.59Q412.01 140.47 428.88 148.7 445.91 155.33 463.03 160.69 480.18 165.29 497.27 169.76 514.22 174.77 530.95 180.91 547.37 188.57 563.42 197.95 579.05 208.94 594.22 221.22 608.89 234.22 623.06 247.29 636.75 259.74 649.98 270.99 644.97 288.5 639.47 306 634.25 323.51 630.06 341.02 627.5 358.53 626.91 376.04 628.4 393.54 631.75 411.05 636.47 428.56 641.91 446.07 647.29 463.58 651.85 481.09 654.94 498.6 656.12 516.11 655.23 533.61 652.39 551.12 635.07 557.06 617.53 561.58 599.88 565.33 582.21 569.08 564.63 573.61 547.22 579.58 530.05 587.42 513.2 597.29 496.71 609.02 480.62 622.14 464.95 635.99 449.69 649.75 434.83 662.65 420.34 674.03 406.17 683.45 392.27 690.79 376.56 678.78 361.21 665.44 346.19 651.51 331.48 637.8 317.05 625.08 302.84 613.97 288.81 604.83 274.91 597.72 261.06 592.36 247.21 588.23 233.32 584.62 219.33 580.71 205.2 575.77 190.9 569.22 176.42 560.74 161.74 550.29 162.59 532.79 162.85 515.29 162.5 497.79 161.58 480.28 160.22 462.78 158.61 445.28 156.99 427.77 155.57 410.27 154.58 392.77 154.13 375.26 154.31 357.76 155.07 340.26 156.32 322.76 157.88 305.25 159.52 287.75 161.02 270.25 176.97 262.99 192.88 253.99 208.71 243.31 224.41 231.27 239.93 218.39 255.24 205.32 270.3 192.75 285.1 181.26 299.63 171.29 313.88 163 327.88 156.33 341.65 150.94 355.23 146.31 368.67 141.8 388.7 133.67 395.37 130.59" stroke-dasharray="1 3" transform="rotate(0, 400, 400)" opacity="0.05"></path><path d="M397.69 142.77Q413.81 152.26 430.06 160.22 446.38 166.72 462.7 171.98 478.96 176.45 495.08 180.68 511.01 185.24 526.66 190.69 541.99 197.43 556.94 205.72 571.48 215.57 585.59 226.77 599.25 238.93 612.48 251.49 625.29 263.87 637.74 275.48 632.78 292.22 627.6 308.96 622.85 325.69 619.17 342.43 617.02 359.16 616.68 375.9 618.21 392.64 621.4 409.37 625.83 426.11 630.93 442.84 636.04 459.58 640.5 476.31 643.72 493.05 645.29 509.79 645 526.52 642.89 543.26 626.58 547.98 610.01 551.77 593.28 555.29 576.46 559.22 559.65 564.18 542.92 570.68 526.35 578.99 509.99 589.11 493.92 600.81 478.17 613.61 462.77 626.89 447.74 639.93 433.07 652.07 418.76 662.75 404.78 671.63 391.09 678.62 376.5 667.17 362.23 654.49 348.25 641.21 334.52 628.04 321.01 615.65 307.66 604.63 294.42 595.34 281.25 587.91 268.08 582.2 254.87 577.83 241.57 574.22 228.16 570.69 214.58 566.57 200.84 561.25 186.9 554.32 172.78 545.58 173.45 528.83 173.54 512.08 173.04 495.33 172.01 478.58 170.59 461.83 168.96 445.07 167.34 428.32 165.93 411.57 164.91 394.82 164.43 378.07 164.53 361.32 165.22 344.57 166.39 327.82 167.9 311.06 169.55 294.31 171.13 277.56 186.46 269.51 201.77 259.85 217.02 248.8 232.18 236.75 247.2 224.24 262.04 211.85 276.67 200.17 291.07 189.67 305.21 180.64 319.08 173.18 332.69 167.14 346.06 162.2 359.21 157.85 372.16 153.53 391.33 145.72 397.69 142.77" stroke-dasharray="4 5" transform="rotate(4.590909090909091, 400, 400)" opacity="0.09"></path><path d="M400.17 154.94Q415.64 164.04 431.16 171.74 446.66 178.08 462.08 183.26 477.38 187.62 492.48 191.63 507.35 195.81 521.92 200.65 536.16 206.56 550.04 213.82 563.54 222.53 576.64 232.59 589.36 243.75 601.7 255.6 613.71 267.62 625.43 279.3 620.63 295.26 615.81 311.21 611.55 327.17 608.34 343.13 606.58 359.09 606.47 375.05 608.02 391.01 611.04 406.97 615.19 422.93 619.96 438.89 624.8 454.85 629.13 470.81 632.44 486.77 634.32 502.73 634.58 518.69 633.16 534.65 617.85 538.49 602.28 541.88 586.49 545.42 570.58 549.68 554.59 555.15 538.62 562.16 522.72 570.84 506.97 581.12 491.4 592.69 476.08 605.1 461.04 617.76 446.3 630.07 431.89 641.45 417.79 651.45 404.01 659.81 390.54 666.44 377.03 655.56 363.8 643.54 350.8 630.91 337.98 618.29 325.32 606.28 312.76 595.4 300.26 586.03 287.76 578.33 275.22 572.27 262.6 567.59 249.88 563.86 237 560.51 223.97 556.96 210.76 552.63 197.36 547.05 183.78 539.93 184.26 523.94 184.18 507.94 183.54 491.95 182.42 475.96 180.95 459.97 179.3 443.97 177.68 427.98 176.28 411.99 175.25 395.99 174.72 380 174.76 364.01 175.36 348.02 176.45 332.02 177.89 316.03 179.53 300.04 181.16 284.05 195.84 275.27 210.53 265.13 225.19 253.93 239.79 242.08 254.29 230.1 268.64 218.52 282.82 207.79 296.79 198.28 310.54 190.17 324.04 183.48 337.3 178.02 350.3 173.48 363.06 169.39 375.61 165.26 394.07 157.76 400.17 154.94" stroke-dasharray="2 3" transform="rotate(9.181818181818182, 400, 400)" opacity="0.14"></path><path d="M402.64 167.13Q417.35 175.83 432.02 183.26 446.62 189.43 461.08 194.51 475.36 198.77 489.42 202.61 503.22 206.47 516.72 210.79 529.9 215.95 542.75 222.25 555.25 229.85 567.42 238.76 579.25 248.82 590.78 259.75 602.05 271.16 613.09 282.59 608.52 297.78 604.1 312.96 600.33 328.14 597.59 343.32 596.18 358.5 596.26 373.68 597.82 388.86 600.69 404.04 604.56 419.22 609.01 434.4 613.57 449.59 617.75 464.77 621.09 479.95 623.23 495.13 623.96 510.31 623.18 525.49 608.88 528.8 594.29 532.09 579.48 535.86 564.49 540.56 549.4 546.55 534.25 554.02 519.1 563 504.03 573.31 489.06 584.66 474.27 596.59 459.68 608.6 445.32 620.16 431.23 630.79 417.42 640.14 403.88 647.97 390.63 654.26 378.16 643.94 365.89 632.56 353.8 620.6 341.83 608.55 329.94 596.96 318.1 586.29 306.26 576.9 294.39 569 282.43 562.61 270.38 557.59 258.18 553.63 245.84 550.29 233.32 547.08 220.64 543.47 207.77 539.01 194.74 533.32 195.02 518.1 194.76 502.87 193.99 487.64 192.78 472.41 191.28 457.18 189.63 441.95 188.02 426.72 186.63 411.5 185.59 396.27 185.03 381.04 185 365.81 185.51 350.58 186.5 335.35 187.86 320.13 189.45 304.9 191.1 289.67 205.12 280.32 219.17 269.91 233.22 258.77 247.24 247.33 261.18 236.05 275.02 225.36 288.72 215.62 302.25 207.08 315.59 199.85 328.72 193.88 341.61 188.96 354.27 184.79 366.69 180.95 378.88 177 396.75 169.82 402.64 167.13" stroke-dasharray="2 1" transform="rotate(13.772727272727272, 400, 400)" opacity="0.18"></path><path d="M404.93 179.3Q418.77 187.6 432.53 194.75 446.15 200.76 459.6 205.73 472.85 209.91 485.86 213.61 498.6 217.2 511.07 221.07 523.23 225.57 535.1 231.01 546.67 237.57 557.96 245.33 568.98 254.23 579.76 264.11 590.34 274.68 600.75 285.59 596.48 299.99 592.5 314.39 589.2 328.8 586.9 343.2 585.82 357.6 586.07 372.01 587.63 386.41 590.34 400.81 593.94 415.22 598.08 429.62 602.36 444.02 606.36 458.42 609.69 472.83 612.03 487.23 613.15 501.63 612.95 516.03 599.63 519.13 586.04 522.56 572.21 526.71 558.18 531.92 544 538.41 529.72 546.26 515.4 555.41 501.08 565.66 486.8 576.69 472.62 588.08 458.58 599.41 444.7 610.21 431.03 620.11 417.57 628.81 404.35 636.14 391.37 642.09 379.85 632.32 368.47 621.59 357.2 610.28 345.99 598.83 334.81 587.7 323.62 577.3 312.39 567.96 301.08 559.92 289.68 553.24 278.14 547.88 266.46 543.62 254.63 540.15 242.62 537.06 230.46 533.92 218.12 530.29 205.64 525.81 205.71 511.35 205.28 496.89 204.39 482.43 203.11 467.97 201.58 453.51 199.94 439.05 198.36 424.6 196.98 410.14 195.94 395.68 195.35 381.22 195.25 366.76 195.66 352.3 196.54 337.84 197.81 323.38 199.33 308.92 200.97 294.46 214.31 284.76 227.7 274.31 241.11 263.47 254.52 252.62 267.88 242.15 281.17 232.42 294.37 223.68 307.43 216.09 320.33 209.69 333.06 204.38 345.58 199.96 357.89 196.12 369.98 192.5 381.85 188.73 399.21 181.86 404.93 179.3" stroke-dasharray="3 2" transform="rotate(18.363636363636363, 400, 400)" opacity="0.22"></path><path d="M406.87 191.48Q419.78 199.38 432.56 206.24 445.18 212.07 457.6 216.93 469.81 221.03 481.79 224.61 493.51 227.98 504.98 231.48 516.19 235.43 527.14 240.09 537.84 245.7 548.31 252.36 558.58 260.1 568.67 268.84 578.61 278.39 588.45 288.51 584.53 302.13 581 315.76 578.16 329.38 576.27 343.01 575.49 356.63 575.89 370.26 577.44 383.88 579.99 397.51 583.33 411.14 587.16 424.76 591.15 438.39 594.96 452.01 598.24 465.64 600.72 479.26 602.17 492.89 602.48 506.51 590.13 509.69 577.51 513.44 564.65 518.07 551.59 523.79 538.36 530.72 524.99 538.85 511.54 548.06 498.03 558.13 484.53 568.74 471.05 579.55 457.64 590.16 444.34 600.21 431.17 609.38 418.16 617.46 405.34 624.3 392.71 629.9 382.05 620.69 371.46 610.6 360.92 599.95 350.39 589.11 339.84 578.47 329.24 568.39 318.57 559.18 307.79 551.07 296.89 544.16 285.86 538.47 274.68 533.88 263.34 530.16 251.84 527.03 240.19 524.12 228.39 521.05 216.45 517.48 216.33 503.79 215.74 490.11 214.74 476.42 213.4 462.74 211.86 449.05 210.24 435.37 208.69 421.68 207.33 408 206.3 394.31 205.67 380.63 205.51 366.94 205.82 353.26 206.59 339.57 207.74 325.89 209.17 312.2 210.76 298.52 223.42 288.71 236.13 278.47 248.88 268.14 261.64 258.04 274.39 248.5 287.11 239.76 299.76 232.01 312.31 225.32 324.75 219.69 337.04 214.99 349.17 211.01 361.12 207.47 372.87 204.07 384.41 200.46 401.31 193.92 406.87 191.48" stroke-dasharray="4 3" transform="rotate(22.954545454545453, 400, 400)" opacity="0.27"></path><path d="M408.34 203.66Q420.27 211.15 432.05 217.71 443.64 223.34 455.05 228.09 466.24 232.11 477.22 235.59 487.97 238.8 498.5 241.99 508.81 245.47 518.91 249.47 528.81 254.22 538.54 259.86 548.12 266.46 557.56 274.03 566.92 282.46 576.22 291.59 572.69 304.44 569.61 317.29 567.22 330.14 565.71 342.99 565.2 355.85 565.72 368.7 567.24 381.55 569.64 394.4 572.72 407.25 576.26 420.1 579.97 432.96 583.56 445.81 586.76 458.66 589.32 471.51 591.03 484.37 591.76 497.22 580.35 500.68 568.69 504.88 556.8 510.02 544.7 516.21 532.42 523.49 519.99 531.77 507.44 540.92 494.81 550.7 482.13 560.82 469.43 570.99 456.74 580.87 444.1 590.17 431.54 598.64 419.08 606.1 406.74 612.46 394.55 617.73 384.64 609.06 374.76 599.6 364.86 589.61 354.94 579.4 344.96 569.29 334.89 559.59 324.73 550.57 314.45 542.46 304.04 535.4 293.49 529.42 282.79 524.49 271.95 520.47 260.96 517.15 249.83 514.26 238.57 511.5 227.18 508.54 226.87 495.63 226.13 482.72 225.03 469.81 223.66 456.9 222.12 443.99 220.52 431.08 219.01 418.17 217.68 405.26 216.65 392.35 216 379.44 215.78 366.53 216 353.62 216.65 340.71 217.67 327.8 218.99 314.89 220.51 301.98 232.45 292.33 244.46 282.54 256.53 272.9 268.63 263.68 280.74 255.12 292.84 247.39 304.91 240.59 316.91 234.76 328.84 229.83 340.66 225.68 352.35 222.09 363.9 218.83 375.29 215.62 386.49 212.19 402.93 205.96 408.34 203.66" stroke-dasharray="2 5" transform="rotate(27.545454545454543, 400, 400)" opacity="0.31"></path><path d="M409.24 215.84Q420.17 222.92 430.94 229.18 441.53 234.6 451.94 239.22 462.17 243.15 472.2 246.56 482.04 249.62 491.69 252.59 501.17 255.68 510.48 259.12 519.65 263.13 528.69 267.84 537.63 273.39 546.49 279.79 555.3 287.05 564.09 295.06 560.97 307.14 558.34 319.22 556.38 331.31 555.22 343.39 554.94 355.47 555.57 367.55 557.05 379.64 559.29 391.72 562.13 403.8 565.37 415.89 568.8 427.97 572.17 440.05 575.25 452.13 577.83 464.21 579.74 476.3 580.83 488.38 570.32 492.27 559.59 496.98 548.64 502.6 537.49 509.17 526.17 516.67 514.68 524.98 503.06 533.93 491.33 543.32 479.52 552.89 467.65 562.38 455.76 571.51 443.86 580.07 431.99 587.85 420.17 594.72 408.43 600.61 396.77 605.54 387.52 597.42 378.24 588.59 368.92 579.26 359.54 569.68 350.07 560.12 340.5 550.85 330.81 542.11 321 534.09 311.06 526.94 300.99 520.74 290.78 515.5 280.43 511.15 269.95 507.55 259.34 504.52 248.63 501.82 237.81 499.2 237.31 487.06 236.45 474.93 235.28 462.79 233.88 450.66 232.35 438.52 230.8 426.39 229.32 414.25 228.03 402.12 227.02 389.98 226.35 377.85 226.06 365.71 226.19 353.58 226.72 341.44 227.61 329.31 228.8 317.17 230.21 305.04 241.43 295.81 252.73 286.68 264.09 277.89 275.5 269.63 286.94 262.08 298.39 255.34 309.83 249.45 321.25 244.4 332.62 240.12 343.92 236.45 355.13 233.22 366.23 230.21 377.21 227.18 388.04 223.91 403.98 218.02 409.24 215.84" stroke-dasharray="7 3" transform="rotate(32.13636363636363, 400, 400)" opacity="0.35"></path><path d="M409.49 228.02Q419.43 234.68 429.22 240.63 438.85 245.83 448.32 250.31 457.63 254.16 466.77 257.48 475.76 260.45 484.61 263.23 493.33 266.02 501.92 269.01 510.41 272.39 518.82 276.3 527.17 280.88 535.48 286.2 543.77 292.29 552.08 299.12 549.39 310.43 547.2 321.75 545.63 333.07 544.79 344.39 544.71 355.7 545.42 367.02 546.85 378.34 548.93 389.66 551.54 400.98 554.5 412.29 557.65 423.61 560.79 434.93 563.72 446.25 566.28 457.57 568.31 468.89 569.68 480.2 560.04 484.59 550.2 489.78 540.17 495.8 529.96 502.64 519.57 510.22 509.03 518.42 498.34 527.07 487.54 535.98 476.63 544.93 465.64 553.7 454.59 562.09 443.5 569.91 432.4 577.03 421.31 583.32 410.23 588.77 399.21 593.37 390.53 585.78 381.79 577.57 372.98 568.89 364.08 559.95 355.08 550.98 345.97 542.18 336.75 533.77 327.4 525.92 317.92 518.78 308.32 512.44 298.59 506.94 288.75 502.27 278.79 498.35 268.72 495.06 258.56 492.24 248.32 489.7 247.66 478.34 246.69 466.98 245.47 455.62 244.06 444.26 242.56 432.9 241.05 421.53 239.63 410.17 238.39 398.81 237.39 387.45 236.7 376.09 236.36 364.73 236.4 353.37 236.8 342.01 237.55 330.65 238.6 319.28 239.89 307.92 250.38 299.35 260.94 291.05 271.58 283.21 282.27 275.96 293.01 269.42 303.78 263.62 314.56 258.58 325.35 254.25 336.11 250.53 346.84 247.3 357.51 244.38 368.12 241.59 378.63 238.74 389.04 235.63 404.41 230.06 409.49 228.02" stroke-dasharray="4 2" transform="rotate(36.72727272727273, 400, 400)" opacity="0.40"></path><path d="M409.09 240.19Q418.08 246.44 426.93 252.06 435.65 257.02 444.24 261.36 452.69 265.1 461.02 268.36 477.3 273.84 493.29 279.08 508.98 285.45 524.58 293.28 535.17 306.37 536.18 325.04 534.98 335.59 534.41 346.15 534.51 356.71 535.27 367.27 536.65 377.83 538.58 388.38 540.96 398.94 543.65 409.5 546.52 420.06 549.42 430.62 552.19 441.17 554.68 451.73 553.15 470.01 540.55 483.31 531.4 489.62 522.09 496.57 512.62 504.09 503 512.05 493.25 520.28 483.37 528.63 473.38 536.92 463.29 544.96 453.13 552.6 442.9 559.71 432.63 566.17 422.32 571.92 412.01 576.92 401.7 581.19 393.52 574.14 385.26 566.54 376.91 558.51 368.46 550.22 359.91 541.85 351.24 533.56 342.47 525.55 333.57 517.95 324.57 510.9 315.45 504.51 306.22 498.83 296.89 493.88 287.47 489.63 277.96 486.03 263.14 476.35 256.87 459.14 255.61 448.55 254.21 437.96 252.75 427.37 251.3 416.78 249.94 406.19 248.74 395.6 247.76 385.01 247.06 374.42 246.68 363.83 246.63 353.24 246.92 342.65 247.52 332.06 248.42 321.47 249.56 310.88 259.3 303.14 269.13 295.79 279.02 288.96 288.98 282.73 298.99 277.15 309.05 272.24 319.14 267.97 329.25 264.28 339.36 261.06 349.47 258.2 359.55 255.56 369.59 252.97 379.58 250.28 389.51 247.35 404.22 242.1 409.09 240.19" stroke-dasharray="0 5" transform="rotate(41.31818181818182, 400, 400)" opacity="0.44"></path><path d="M408.06 252.37Q416.15 258.2 424.13 263.48 439.72 272.1 455.03 279.18 469.93 284.46 484.67 289.3 499.25 294.65 513.82 301.02 523.91 312.2 525.29 329.18 524.42 338.99 524.1 348.79 524.34 358.59 525.14 368.39 526.46 378.19 528.23 387.99 530.39 397.8 532.82 407.6 535.42 417.4 538.07 427.2 540.65 437 543.04 446.8 541.96 464.14 530.64 477.54 522.34 483.98 513.9 490.9 505.32 498.21 496.6 505.8 487.76 513.52 478.8 521.24 469.73 528.82 460.55 536.13 451.29 543.04 441.95 549.45 432.55 555.28 423.09 560.49 404.97 563.78 388.52 555.49 380.6 548.11 372.59 540.47 364.47 532.71 356.25 524.98 347.92 517.41 339.5 510.14 330.97 503.28 322.35 496.94 313.64 491.16 304.84 486.01 295.97 481.48 287.03 477.56 273.05 467.83 266.97 451.65 265.7 441.83 264.32 432.01 262.91 422.19 261.53 412.36 260.23 402.54 259.09 392.72 258.14 382.9 257.44 373.08 257.02 363.26 256.89 353.44 257.06 343.62 257.52 333.8 258.26 323.98 259.24 314.15 268.23 307.37 277.3 301.03 286.44 295.22 295.65 289.98 304.92 285.31 314.24 281.2 323.6 277.61 333 274.47 342.42 271.69 351.86 269.16 361.29 266.76 370.72 264.36 380.12 261.83 389.48 259.06 403.43 254.16 408.06 252.37" stroke-dasharray="6 0" transform="rotate(45.90909090909091, 400, 400)" opacity="0.48"></path><path d="M406.47 264.55Q420.87 274.65 435.03 283.32 448.87 289.76 462.56 295.14 476.11 299.6 489.64 304.07 503.26 309.54 517 316.11 515.56 325.16 514.53 334.21 513.95 343.26 513.83 352.31 514.19 361.36 515.01 370.41 516.26 379.46 517.88 388.51 519.82 397.56 522 406.61 524.34 415.66 526.74 424.71 529.12 433.76 531.37 442.81 530.65 459.14 520.52 472.41 513.02 478.81 505.41 485.54 497.68 492.51 489.83 499.61 481.87 506.74 473.81 513.79 465.64 520.64 457.37 527.2 449.01 533.39 440.57 539.12 432.06 544.36 423.48 549.05 406.85 552.03 391.45 544.43 383.96 537.69 376.37 530.7 368.7 523.57 360.93 516.42 353.07 509.35 345.13 502.48 337.1 495.9 329 489.7 320.83 483.94 312.59 478.68 304.29 473.95 295.94 469.74 282.84 459.92 276.99 444.73 275.73 435.67 274.4 426.62 273.06 417.56 271.75 408.5 270.53 399.45 269.44 390.39 268.53 381.33 267.83 372.28 267.37 363.22 267.17 354.16 267.24 345.11 267.56 336.05 272.66 319.58 285.5 306.86 293.88 302.04 302.32 297.71 310.83 293.87 319.39 290.47 328 287.48 336.66 284.82 345.35 282.41 354.07 280.16 362.81 277.97 371.56 275.74 380.31 273.37 389.06 270.77 402.13 266.2 406.47 264.55" stroke-dasharray="1 4" transform="rotate(50.5, 400, 400)" opacity="0.53"></path><path d="M404.44 276.73Q417.38 286.29 430.13 294.23 442.72 300.61 455.22 305.68 467.69 309.91 480.21 313.89 492.85 318.22 505.68 323.49 503.9 340.09 503.62 356.69 504.89 373.29 507.53 389.89 511.21 406.49 515.44 423.1 519.68 439.7 523.38 456.3 510.19 467.82 496.64 480.4 482.7 493.42 468.39 506.23 453.71 518.18 438.7 528.74 423.39 537.59 407.84 544.65 393.96 533.36 379.75 520.9 365.24 507.87 350.45 494.94 335.39 482.76 320.13 471.87 304.69 462.64 289.13 455.16 286.95 438.57 284.45 421.98 281.96 405.38 279.79 388.79 278.23 372.19 277.49 355.6 277.65 339.01 278.7 322.42 293.74 313.35 309.03 305.93 324.56 300.03 340.29 295.29 356.19 291.19 372.22 287.12 396.38 279.6 404.44 276.73" stroke-dasharray="4 2" transform="rotate(55.090909090909086, 400, 400)" opacity="0.57"></path><path d="M402.1 288.91Q413.69 297.67 425.18 305.09 436.61 311.18 448.02 316.12 459.47 320.2 471.01 323.83 482.69 327.49 494.57 331.63 493.39 346.73 493.46 361.84 494.77 376.94 497.18 392.05 500.43 407.15 504.17 422.26 508 437.37 511.51 452.47 499.71 463.64 487.62 475.37 475.24 487.17 462.56 498.55 449.58 509.04 436.3 518.3 422.76 526.13 408.96 532.48 395.95 522.28 382.68 511.08 369.17 499.32 355.44 487.48 341.52 476.08 327.45 465.55 313.27 456.25 299.02 448.36 296.85 433.28 294.47 418.2 292.16 403.12 290.14 388.04 288.65 372.96 287.84 357.88 287.79 342.8 288.53 327.72 302.06 320.5 315.82 314.62 329.78 309.85 343.95 305.86 358.3 302.23 372.79 298.48 394.75 291.54 402.1 288.91" stroke-dasharray="4 3" transform="rotate(59.68181818181819, 400, 400)" opacity="0.61"></path><path d="M399.61 301.09Q409.98 309.04 420.31 315.9 430.65 321.67 441.03 326.44 451.48 330.4 462.05 333.82 472.76 337.03 483.66 340.37 483 353.98 483.34 367.58 484.65 381.19 486.83 394.8 489.67 408.41 492.93 422.02 496.33 435.63 499.57 449.24 489.09 459.7 478.4 470.33 467.49 480.78 456.36 490.7 444.98 499.78 433.37 507.8 421.53 514.64 409.47 520.29 397.4 511.18 385.14 501.22 372.7 490.74 360.11 480.07 347.39 469.59 334.58 459.65 321.7 450.54 308.79 442.48 306.68 428.91 304.47 415.34 302.34 401.76 300.49 388.19 299.08 374.62 298.22 361.05 298 347.48 298.43 333.91 310.48 328.33 322.7 323.73 335.12 319.89 347.71 316.51 360.47 313.28 373.39 309.83 393.03 303.48 399.61 301.09" stroke-dasharray="6 1" transform="rotate(64.27272727272727, 400, 400)" opacity="0.65"></path><path d="M397.15 313.27Q406.39 320.39 415.65 326.66 424.95 332.05 434.32 336.61 443.78 340.45 453.36 343.73 463.08 346.67 472.96 349.5 472.72 361.62 473.26 373.73 474.54 385.84 476.48 397.96 478.93 410.07 481.73 422.18 484.69 434.3 487.6 446.41 478.37 455.84 469.01 465.2 459.5 474.22 449.82 482.68 439.96 490.4 429.93 497.24 419.71 503.15 409.32 508.12 398.29 500.07 387.12 491.34 375.84 482.13 364.47 472.69 353.02 463.26 341.52 454.11 329.99 445.47 318.45 437.52 316.46 425.46 314.44 413.39 312.52 401.32 310.84 389.25 309.52 377.18 308.65 365.11 308.28 353.04 308.44 340.97 319.01 336.76 329.73 333.19 340.6 330.08 351.63 327.2 362.81 324.31 374.13 321.16 391.37 315.4 397.15 313.27" stroke-dasharray="6 4" transform="rotate(68.86363636363636, 400, 400)" opacity="0.70"></path><path d="M394.89 325.44Q403.07 331.72 411.29 337.35 419.57 342.31 427.94 346.6 436.4 350.29 444.96 353.47 458.1 362.84 463.22 380.03 464.43 390.64 466.12 401.26 468.2 411.87 470.57 422.48 473.08 433.1 475.62 443.72 467.61 451.9 459.51 459.85 451.31 467.42 443 474.47 434.58 480.89 426.03 486.63 417.34 491.64 408.53 495.95 398.64 488.95 388.67 481.42 378.63 473.48 368.55 465.29 358.43 457.02 348.29 448.84 338.14 440.91 328.01 433.39 326.19 422.82 324.38 412.25 322.69 401.68 321.2 391.11 319.98 380.54 319.11 369.97 323.17 352.55 336.93 342.93 346.29 340.38 355.77 337.9 365.37 335.31 375.09 332.46 389.91 327.32 394.89 325.44" stroke-dasharray="0 5" transform="rotate(73.45454545454545, 400, 400)" opacity="0.74"></path><path d="M392.98 337.62Q407.35 347.75 421.92 356.41 436.9 362.76 452.17 368.02 452.49 377.13 453.22 386.24 454.33 395.35 455.77 404.46 457.5 413.57 459.44 422.68 459.17 439.74 449.94 454.2 442.99 460.33 435.98 466.03 421.69 475.68 407.15 483.76 398.5 477.81 389.82 471.45 381.11 464.77 372.38 457.85 363.65 450.8 354.91 443.72 346.19 436.73 337.49 429.93 335.88 420.86 334.31 411.79 332.85 402.72 331.55 393.65 330.46 384.58 329.62 375.51 332.81 360.74 344.33 352.86 360.22 348.52 376.39 343.75 388.81 339.25 392.98 337.62" stroke-dasharray="5 7" transform="rotate(78.04545454545455, 400, 400)" opacity="0.78"></path><path d="M391.55 349.8Q403.81 358.59 416.3 366.01 429.03 372.06 442.06 376.93 443.24 392.13 445.42 407.34 448.36 422.54 451.75 437.74 440.34 448.16 428.82 457.39 417.14 465.21 405.27 471.59 390.66 461.45 376.03 450.34 361.43 438.67 346.9 426.94 344.22 411.81 341.9 396.67 340.18 381.54 339.24 366.4 351.95 362.87 364.89 359.22 384.82 352.4 391.55 349.8" stroke-dasharray="5 5" transform="rotate(82.63636363636364, 400, 400)" opacity="0.83"></path><path d="M390.71 361.98Q400.8 369.12 411.06 375.39 421.49 380.77 432.11 385.3 433.29 397.47 435.07 409.64 437.33 421.81 439.91 433.99 430.78 441.67 421.61 448.5 412.36 454.41 403.03 459.4 391.27 451.4 379.54 442.72 367.86 433.57 356.26 424.19 354.12 412.06 352.25 399.94 355.29 380.34 369.95 369.78 385.48 364.1 390.71 361.98" stroke-dasharray="6 5" transform="rotate(87.22727272727273, 400, 400)" opacity="0.87"></path><path d="M390.51 374.16Q398.31 379.6 406.21 384.56 418.79 395.55 424.72 411.22 423.81 427.52 414.41 439.39 399.64 442.43 382.99 434.96 374.26 428.31 365.59 421.43 364.01 412.32 362.6 403.22 364.66 388.43 375.35 380.24 386.7 375.78 390.51 374.16" stroke-dasharray="6 0" transform="rotate(91.81818181818181, 400, 400)" opacity="0.91"></path><path d="M390.96 386.34Q401.72 393.49 412.66 399.76 414.37 411.95 416.53 424.13 407.31 430.04 398.09 435.05 386.44 427.06 374.92 418.4 372.95 406.25 371.4 394.09 386.04 388.45 390.96 386.34" stroke-dasharray="6 4" transform="rotate(96.4090909090909, 400, 400)" opacity="0.96"></path></g></svg>