<?xml version="1.0" encoding="UTF-8" standalone="no"?>
<!-- Uploaded to: SVG Repo, www.svgrepo.com, Generator: SVG Repo Mixer Tools -->

<svg
   fill="#000000"
   version="1.1"
   id="Capa_1"
   width="800"
   height="800"
   viewBox="0 0 418.879 418.879"
   xml:space="preserve"
   xmlns="http://www.w3.org/2000/svg"
   xmlns:svg="http://www.w3.org/2000/svg"><defs
   id="defs15" />
<g
   id="g10">
	<g
   id="g8">
		<path
   d="m 188.634,234.066 c 8.462,-5.287 16.126,-11.735 22.767,-19.127 l 23.942,13.826 21.8,-37.76 -23.894,-13.796 c 3.038,-9.275 4.825,-19.113 5.16,-29.311 l 27.183,-4.793 -7.574,-42.938 -27.178,4.793 C 227.084,95.651 222.045,86.995 215.934,79.216 L 233.7,58.046 200.3,30.022 182.549,51.174 C 173.879,46.528 164.49,43.055 154.595,40.971 V 13.385 h -43.6 v 27.586 c -9.896,2.084 -19.285,5.557 -27.956,10.203 l -17.75,-21.152 -33.4,28.025 17.764,21.17 c -6.11,7.779 -11.149,16.436 -14.905,25.744 L 7.57,100.168 0,143.106 l 27.179,4.793 c 0.335,10.199 2.123,20.035 5.161,29.313 l -23.896,13.795 21.801,37.759 23.943,-13.822 c 6.639,7.389 14.303,13.838 22.766,19.125 l -9.451,25.963 40.972,14.91 9.438,-25.928 c 4.864,0.688 9.831,1.053 14.882,1.053 5.051,0 10.019,-0.363 14.883,-1.053 l 9.437,25.93 40.97,-14.914 z m -55.841,-34.001 c -30.702,0 -55.68,-24.977 -55.68,-55.68 0,-30.701 24.978,-55.68 55.68,-55.68 30.702,0 55.68,24.979 55.68,55.68 0,30.703 -24.977,55.68 -55.68,55.68 z"
   id="path2" />
		<path
   d="m 376.041,266.807 -18.795,6.08 c -3.584,-6.229 -8.014,-11.869 -13.115,-16.779 l 10.504,-16.764 -26.447,-16.57 -10.498,16.75 c -6.604,-2.438 -13.602,-3.973 -20.826,-4.471 l -2.725,-19.559 -30.912,4.309 2.725,19.559 c -6.809,2.453 -13.125,5.847 -18.812,9.996 l -14.672,-13.244 -20.912,23.168 14.684,13.259 c -3.562,6.118 -6.277,12.752 -8.02,19.726 l -19.744,-0.714 -1.129,31.188 19.743,0.716 c 1.246,7.198 3.486,13.991 6.558,20.271 l -15.578,12.143 19.185,24.615 15.609,-12.164 c 5.438,4.582 11.511,8.396 18.031,11.311 l -4.138,19.344 30.522,6.52 4.133,-19.314 c 3.516,0.01 7.072,-0.229 10.652,-0.727 3.582,-0.498 7.07,-1.25 10.447,-2.215 l 9.256,17.451 27.574,-14.623 -9.266,-17.471 c 5.48,-4.586 10.271,-9.918 14.252,-15.812 l 18.338,7.436 11.727,-28.924 -18.303,-7.422 c 1.234,-6.875 1.529,-14.027 0.764,-21.293 l 18.799,-6.084 z m -78.912,83.199 c -21.771,3.031 -41.949,-12.209 -44.98,-33.977 -3.037,-21.769 12.207,-41.949 33.977,-44.979 21.768,-3.036 41.941,12.207 44.98,33.978 3.029,21.767 -12.21,41.941 -33.977,44.978 z"
   id="path4" />
		<path
   d="m 418.146,158.647 0.732,-24.629 -15.586,-0.463 c -0.977,-5.428 -2.723,-10.803 -5.285,-15.971 l 12.24,-9.67 -15.271,-19.33 -12.238,9.666 c -4.365,-3.627 -9.193,-6.584 -14.318,-8.816 l 3.164,-15.291 -24.123,-4.996 -3.17,15.281 c -5.559,0.008 -11.156,0.797 -16.641,2.412 l -7.391,-13.727 -21.695,11.684 7.391,13.729 c -4.363,3.686 -8.107,7.934 -11.176,12.566 l -14.496,-5.77 -9.111,22.893 14.508,5.779 c -0.955,5.508 -1.141,11.158 -0.514,16.799 l -14.809,4.898 7.732,23.395 14.809,-4.896 c 2.9,4.986 6.426,9.396 10.426,13.201 l -8.191,13.268 20.963,12.946 8.209,-13.292 c 5.285,1.896 10.828,3.051 16.453,3.414 l 2.252,15.453 24.383,-3.561 -2.246,-15.434 c 2.602,-0.957 5.17,-2.109 7.684,-3.463 2.516,-1.352 4.891,-2.867 7.123,-4.51 l 11.648,10.371 16.387,-18.398 -11.656,-10.383 c 2.795,-4.9 4.875,-10.164 6.203,-15.619 z m -58.71,13.197 c -15.281,8.227 -34.404,2.492 -42.627,-12.783 -8.23,-15.277 -2.494,-34.404 12.787,-42.627 15.273,-8.229 34.395,-2.49 42.625,12.787 8.222,15.278 2.49,34.395 -12.785,42.623 z"
   id="path6" />
	</g>
</g>
<path
   style="fill:#e6e6e6;stroke-width:0.535652"
   d="M 87.720724,267.66536 C 76.603612,263.6289 67.504241,260.12483 67.4999,259.87854 c -0.0042,-0.24629 2.068959,-6.1266 4.607329,-13.06735 4.018018,-10.98662 4.504489,-12.68153 3.759455,-13.09847 -2.825779,-1.58139 -12.134715,-9.03239 -16.507739,-13.21303 -2.819134,-2.69511 -5.29284,-4.9002 -5.497117,-4.9002 -0.204276,0 -5.115207,2.73601 -10.91318,6.08003 -5.797973,3.34401 -11.061192,6.35326 -11.696043,6.68722 -1.099027,0.57812 -1.669479,-0.28639 -11.918233,-18.0618 -5.920176,-10.26795 -10.7639579,-18.88557 -10.7639579,-19.15026 0,-0.26471 5.0016399,-3.348 11.1147559,-6.85178 6.113116,-3.50378 11.378746,-6.5715 11.701399,-6.81716 0.414955,-0.31594 0.218378,-1.81928 -0.671693,-5.13683 -1.702407,-6.34537 -2.756954,-12.2238 -3.318798,-18.50021 -0.257968,-2.8818 -0.616686,-5.38728 -0.79715,-5.56775 -0.180465,-0.18046 -6.141765,-1.36107 -13.247335,-2.62359 C 6.2460241,144.39485 0.30291497,143.23243 0.14468418,143.0742 -0.16611348,142.7634 6.9691727,101.292 7.4739747,100.47521 c 0.1754507,-0.28388 5.9774673,0.50912 13.6548123,1.8663 7.342351,1.29796 13.380735,2.30379 13.41863,2.23517 0.0379,-0.0686 1.540005,-3.13779 3.338023,-6.82039 2.699726,-5.529428 6.341779,-11.511994 10.745731,-17.65132 0.613652,-0.855461 -0.293378,-2.133639 -8.157806,-11.495857 l -8.848223,-10.533377 3.604774,-3.080227 c 1.982626,-1.69412 9.55768,-8.073625 16.833454,-14.176671 l 13.228682,-11.096447 8.670151,10.314396 c 4.768587,5.672918 8.859396,10.388136 9.09069,10.478261 0.23129,0.09013 1.826355,-0.537909 3.544581,-1.39563 5.853624,-2.922073 20.944686,-8.142124 23.538706,-8.142124 0.61524,0 0.74356,-2.403356 0.74356,-13.926924 V 13.123447 h 21.96168 21.96169 v 13.86731 13.86731 l 2.00869,0.372332 c 3.75878,0.696729 13.77535,4.147244 19.84423,6.835958 3.32818,1.474491 6.11772,2.591778 6.19899,2.48286 0.0813,-0.108918 3.97108,-4.777848 8.64403,-10.3754 4.67296,-5.597552 8.54705,-10.252495 8.60909,-10.344318 0.20855,-0.308619 33.43565,27.804707 33.43565,28.289779 0,0.263711 -3.894,5.106093 -8.65333,10.760855 -5.87238,6.97722 -8.49757,10.482756 -8.16868,10.907981 2.89465,3.742443 8.90746,13.593199 11.29456,18.503828 1.64694,3.387988 3.0368,6.214938 3.08858,6.282118 0.0518,0.0672 6.09679,-0.94583 13.43333,-2.25113 7.33655,-1.30528 13.42682,-2.2856 13.53394,-2.17848 0.37388,0.37389 7.70978,42.68593 7.44639,42.94933 -0.18116,0.18116 -25.81255,4.94869 -26.9391,5.01077 -0.0292,0.002 -0.19839,2.35309 -0.37608,5.22552 -0.35492,5.73738 -1.93553,14.55949 -3.56657,19.90674 -0.57636,1.88952 -0.93717,3.61466 -0.80182,3.83366 0.13535,0.219 5.4257,3.37337 11.75633,7.00972 6.33064,3.63634 11.51269,6.79788 11.51567,7.02565 0.005,0.35312 -21.1313,37.2385 -21.61602,37.72322 -0.0946,0.0946 -5.38324,-2.84334 -11.75252,-6.52878 -6.36927,-3.68543 -11.77938,-6.70079 -12.02247,-6.70079 -0.2431,0 -1.63815,1.22646 -3.10011,2.72547 -3.76775,3.86321 -11.51374,10.31263 -15.84478,13.19258 -2.02749,1.34819 -3.68634,2.60684 -3.68634,2.79701 0,0.19017 2.0559,5.98101 4.56865,12.86854 2.51276,6.88753 4.38085,12.70397 4.1513,12.92543 -0.87997,0.84896 -40.49821,14.98461 -40.8519,14.57582 -0.20513,-0.2371 -2.38927,-6.02917 -4.85365,-12.87127 l -4.48068,-12.4402 -4.84419,0.38805 c -6.18563,0.49551 -13.69373,0.49431 -19.9106,-0.003 l -4.88905,-0.39123 -1.46679,4.14079 c -4.0357,11.39285 -7.91681,21.54663 -8.22691,21.52327 -0.19101,-0.0144 -9.443115,-3.32874 -20.560226,-7.36521 z m 50.477206,-68.15163 c 7.09663,-0.74376 12.16488,-2.23163 19.01561,-5.58237 11.20197,-5.47898 19.73285,-14.01005 25.20074,-25.20133 4.47326,-9.15556 5.33321,-13.09351 5.32224,-24.37212 -0.0111,-11.32551 -0.88919,-15.32746 -5.35229,-24.39106 -5.52973,-11.22969 -14.03958,-19.7433 -25.17069,-25.181789 -9.24554,-4.517233 -13.06523,-5.33832 -24.63994,-5.296657 -11.17305,0.04021 -14.66818,0.755652 -23.02056,4.71221 -6.66216,3.155898 -10.977323,6.165056 -15.921776,11.102966 -18.758899,18.73407 -21.541068,47.60586 -6.757178,70.12209 1.257333,1.91495 4.220195,5.44099 6.584134,7.83566 8.94081,9.05699 20.97654,14.91592 33.31867,16.21932 5.90596,0.6237 5.7888,0.62336 11.42104,0.0331 z"
   id="path246" /><path
   style="fill:#e6e6e6;stroke-width:0.535652"
   d="m 342.57624,217.66137 c -0.4663,-2.70883 -1.90227,-12.70171 -1.90227,-13.23784 0,-0.25849 -1.48069,-0.63751 -3.29042,-0.84226 -1.80974,-0.20475 -5.48285,-0.94171 -8.16248,-1.63769 -2.67963,-0.69599 -4.90888,-1.22248 -4.95388,-1.16997 -0.045,0.0525 -1.81949,2.92773 -3.9433,6.38937 -2.1238,3.46165 -4.097,6.2939 -4.38487,6.2939 -0.48284,0 -19.36984,-11.43005 -20.48603,-12.39775 -0.2851,-0.24717 1.21096,-3.22013 3.53651,-7.02772 l 4.03065,-6.59933 -2.65114,-2.88323 c -1.45812,-1.58577 -3.77268,-4.48012 -5.14346,-6.4319 l -2.49234,-3.54866 -7.18782,2.32014 c -3.9533,1.27609 -7.35759,2.13187 -7.56508,1.90174 -0.20749,-0.23014 -2.07228,-5.52821 -4.14398,-11.77351 l -3.76672,-11.35509 7.31442,-2.43789 7.31442,-2.43788 0.13077,-7.09742 c 0.0719,-3.90357 0.19244,-7.66124 0.26782,-8.35038 0.12415,-1.13491 -0.49387,-1.50474 -6.55857,-3.92477 -3.68261,-1.46948 -6.86943,-2.83904 -7.08182,-3.04346 -0.3677,-0.35386 7.8174,-21.84172 8.66231,-22.74068 0.22217,-0.23638 3.45652,0.78805 7.18743,2.27652 3.73092,1.48846 6.96616,2.7063 7.18942,2.7063 0.22326,0 1.4503,-1.43415 2.72676,-3.187 1.27646,-1.75285 3.70153,-4.50397 5.38906,-6.11359 l 3.06821,-2.926581 -3.69937,-6.793086 c -2.03465,-3.736197 -3.62191,-6.856636 -3.52723,-6.934306 0.6128,-0.502729 21.3995,-11.540148 21.7269,-11.536656 0.22381,0.0026 1.9264,2.888689 3.78353,6.413996 1.85713,3.525306 3.58272,6.537025 3.83463,6.692718 0.25191,0.155692 1.87588,-0.08017 3.60881,-0.524123 1.73294,-0.443959 5.3103,-0.986947 7.9497,-1.206644 l 4.79889,-0.399448 1.55672,-7.642562 c 1.2847,-6.307161 1.70588,-7.600706 2.41042,-7.403011 0.46955,0.131758 5.91562,1.262909 12.10239,2.513672 6.18677,1.250762 11.3334,2.336763 11.43695,2.41334 0.10356,0.07657 -0.52935,3.524746 -1.40647,7.662606 l -1.59476,7.523391 4.08473,2.197272 c 2.2466,1.208502 5.33986,3.141629 6.87391,4.295834 1.53405,1.154206 2.92837,2.098558 3.0985,2.098558 0.17012,0 2.89219,-2.046172 6.04905,-4.547042 3.15686,-2.500875 5.98079,-4.471088 6.27539,-4.378259 0.72112,0.227216 15.31088,18.712991 15.13603,19.177911 -0.0758,0.20153 -2.66875,2.35135 -5.76213,4.77738 -3.09339,2.42602 -5.72039,4.49165 -5.83779,4.59029 -0.1174,0.0986 0.5248,2.0518 1.42711,4.34036 0.90231,2.28856 2.04485,5.72722 2.539,7.64145 0.49413,1.91423 1.17766,3.6581 1.51896,3.87526 0.3413,0.21717 3.81436,0.39855 7.71791,0.40306 l 7.09738,0.008 v 6.07589 c 0,3.34174 -0.15918,9.03624 -0.35373,12.65445 l -0.35373,6.57858 -7.72752,-0.20058 -7.72752,-0.20057 -1.20098,3.7758 c -0.66054,2.07669 -2.00919,5.52922 -2.99699,7.67228 l -1.796,3.89648 3.44521,3.03726 c 1.89487,1.6705 4.48339,4.00316 5.75229,5.18369 l 2.30707,2.14642 -8.1194,9.10572 c -4.46566,5.00815 -8.21005,9.20063 -8.32086,9.31661 -0.1108,0.116 -2.31611,-1.67803 -4.90069,-3.98674 -2.58459,-2.3087 -5.21177,-4.64726 -5.8382,-5.1968 -1.12233,-0.98456 -1.18544,-0.96935 -4.31896,1.04066 -2.35775,1.5124 -10.02336,5.45839 -11.25223,5.79227 -0.0577,0.0157 0.38222,3.36587 0.97768,7.44485 0.59547,4.07898 0.88375,7.59961 0.64063,7.82361 -0.24312,0.224 -5.02185,1.04765 -10.6194,1.83035 -5.59755,0.7827 -10.94535,1.55745 -11.88398,1.72168 -1.59709,0.27944 -1.72644,0.18347 -2.01545,-1.49544 z m 12.08899,-44.06066 c 9.80935,-3.41136 17.39688,-11.61081 19.9843,-21.59601 1.07872,-4.16289 1.07872,-11.66633 0,-15.82922 -5.16698,-19.94004 -28.37467,-29.35442 -46.22417,-18.75121 -9.05111,5.37667 -15.05375,16.00959 -15.05375,26.66582 0,8.46938 2.94889,15.52087 9.11921,21.8062 4.51884,4.60305 9.37451,7.3313 15.54346,8.73338 4.89354,1.11219 11.68173,0.6922 16.63095,-1.02896 z"
   id="path248" /><path
   style="fill:#e6e6e6;stroke-width:0.535652"
   d="m 271.57501,402.41987 c -8.10173,-1.76722 -14.79687,-3.27245 -14.87812,-3.34498 -0.0812,-0.0725 0.77694,-4.44432 1.90707,-9.71513 l 2.05478,-9.58328 -4.04967,-2.0737 c -3.6291,-1.85835 -7.54556,-4.36679 -12.26037,-7.85259 l -1.60958,-1.19002 -7.30911,5.72161 c -4.02001,3.14689 -7.59548,5.81613 -7.94548,5.93164 -0.48563,0.16026 -18.94548,-22.87748 -19.50021,-24.33609 -0.0638,-0.16782 1.0051,-1.14879 2.37539,-2.17992 1.37029,-1.03112 4.83138,-3.72257 7.6913,-5.981 l 5.19986,-4.10623 -1.81868,-4.52947 c -1.00026,-2.4912 -2.45062,-6.94076 -3.22299,-9.88791 l -1.40432,-5.35845 -2.7453,-0.32986 c -1.50992,-0.18143 -5.39678,-0.33525 -8.63746,-0.34183 -9.09532,-0.0185 -8.48259,0.52405 -8.10095,-7.17286 0.17682,-3.56597 0.47473,-10.62072 0.66205,-15.67723 l 0.34056,-9.19364 3.81699,0.21131 c 2.09935,0.11623 6.51941,0.31918 9.82235,0.45099 l 6.00535,0.23968 1.33641,-4.38079 c 0.73503,-2.40944 2.52767,-6.8166 3.98366,-9.79369 l 2.64724,-5.41289 -7.14161,-6.37143 c -3.92788,-3.50428 -7.15746,-6.57559 -7.17684,-6.82513 -0.0281,-0.36154 6.70582,-7.99466 20.11321,-22.79909 0.5754,-0.63535 1.84764,0.29483 8.00238,5.85085 6.85645,6.18947 7.3906,6.56027 8.46539,5.87657 5.30985,-3.37772 8.75196,-5.29318 12.55083,-6.98424 2.44211,-1.08709 4.54896,-2.0853 4.68191,-2.21825 0.13294,-0.13294 -0.36518,-4.53603 -1.10693,-9.78464 -0.74175,-5.24861 -1.28183,-9.58746 -1.20017,-9.64189 0.1082,-0.0721 26.46439,-3.71967 30.64935,-4.24171 0.27744,-0.0346 1.12292,4.2662 1.87885,9.55733 l 1.37443,9.62026 5.62025,0.93013 c 3.09114,0.51157 7.66438,1.52557 10.16276,2.25334 2.49838,0.72776 4.67065,1.244 4.82727,1.14721 0.15662,-0.0968 2.57162,-3.81294 5.36665,-8.25808 2.79504,-4.44515 5.22252,-8.02177 5.39441,-7.94804 1.87974,0.80624 26.16297,16.34166 26.16488,16.73922 0.002,0.29461 -2.26072,4.13292 -5.02697,8.52958 l -5.02955,7.99394 3.19386,3.52256 c 1.75663,1.93741 4.64376,5.63168 6.41587,8.20951 1.77209,2.57781 3.38953,4.68691 3.5943,4.68688 0.20477,-4e-5 4.42527,-1.30073 9.37888,-2.89044 8.91095,-2.85967 9.01118,-2.87815 9.44101,-1.7408 1.44501,3.82356 9.29132,28.75566 9.10117,28.91946 -0.1268,0.10924 -4.27345,1.49855 -9.21478,3.08737 l -8.98422,2.88875 -0.24793,9.10606 c -0.13637,5.00834 -0.31172,9.78877 -0.38968,10.62319 -0.13871,1.48489 0.0397,1.59003 8.39492,4.94778 4.69515,1.88686 8.71612,3.61458 8.93548,3.83939 0.37799,0.38734 -10.40058,27.75619 -11.3097,28.71751 -0.23663,0.25023 -4.34907,-1.13577 -9.13874,-3.07999 -4.78968,-1.94421 -8.87081,-3.53493 -9.06919,-3.53493 -0.19837,0 -1.17747,1.14495 -2.17577,2.54434 -0.9983,1.39939 -4.0522,4.85699 -6.78644,7.68356 -2.73424,2.82657 -4.97135,5.29437 -4.97135,5.48401 0,0.18964 1.94315,3.97918 4.3181,8.42119 2.37496,4.44202 4.23797,8.3168 4.14003,8.61064 -0.17071,0.51211 -27.24616,15.0939 -27.48586,14.80282 -0.0641,-0.0778 -2.10269,-3.87763 -4.53026,-8.44405 -2.42758,-4.56642 -4.49496,-8.39022 -4.59418,-8.49731 -0.0992,-0.1071 -2.66391,0.2984 -5.69929,0.90111 -3.03538,0.60272 -7.7148,1.26114 -10.39869,1.46317 l -4.87982,0.36732 -2.03815,9.5785 c -1.16551,5.47746 -2.28696,9.55224 -2.61929,9.51721 -0.31963,-0.0337 -7.20984,-1.50719 -15.31155,-3.27441 z m 28.55157,-53.23202 c 8.14323,-1.81653 16.81509,-7.08197 21.85502,-13.27006 3.54125,-4.34801 7.14004,-11.61604 8.2728,-16.70756 1.31692,-5.91929 0.8649,-15.64774 -0.9736,-20.95444 -2.2279,-6.43066 -4.96825,-10.74543 -10.00856,-15.75879 -3.83062,-3.81016 -5.5161,-5.0434 -9.69568,-7.09422 -10.65411,-5.22772 -20.63061,-5.90138 -31.29223,-2.113 -11.32023,4.02241 -21.33966,14.55852 -24.60254,25.87125 -7.34517,25.46644 11.27517,50.64311 37.60656,50.84805 2.76826,0.0215 6.69643,-0.34346 8.83823,-0.82123 z"
   id="path250" /></svg>
