<?xml version="1.0" encoding="UTF-8" standalone="no"?>
<!-- Uploaded to: SVG Repo, www.svgrepo.com, Generator: SVG Repo Mixer Tools -->

<svg
   fill="#000000"
   height="800"
   width="800"
   version="1.1"
   id="Capa_1"
   viewBox="0 0 463 463"
   xml:space="preserve"
   xmlns="http://www.w3.org/2000/svg"
   xmlns:svg="http://www.w3.org/2000/svg"><defs
   id="defs13" />
<g
   id="g8">
	<path
   d="m 232.026,176 c -30.603,0 -55.5,24.897 -55.5,55.5 0,30.603 24.897,55.5 55.5,55.5 30.603,0 55.5,-24.897 55.5,-55.5 0,-30.603 -24.898,-55.5 -55.5,-55.5 z m 0,96 c -22.332,0 -40.5,-18.168 -40.5,-40.5 0,-22.332 18.168,-40.5 40.5,-40.5 22.332,0 40.5,18.168 40.5,40.5 0,22.332 -18.168,40.5 -40.5,40.5 z"
   id="path2" />
	<path
   d="m 232.026,208 c -4.143,0 -7.5,3.357 -7.5,7.5 0,4.143 3.357,7.5 7.5,7.5 4.687,0 8.5,3.813 8.5,8.5 0,4.143 3.357,7.5 7.5,7.5 4.143,0 7.5,-3.357 7.5,-7.5 0,-12.958 -10.542,-23.5 -23.5,-23.5 z"
   id="path4" />
	<path
   d="m 388.061,231.5 c 6.575,-6.863 12.633,-13.755 18.114,-20.633 30.384,-38.126 39.736,-71.906 26.335,-95.117 -13.4,-23.21 -47.329,-32.003 -95.541,-24.752 -8.713,1.31 -17.729,3.115 -26.977,5.384 -5.481,-18.897 -12.136,-35.802 -19.819,-49.969 3.342,-4.06 5.352,-9.256 5.352,-14.913 0,-12.958 -10.542,-23.5 -23.5,-23.5 -3.851,0 -7.485,0.937 -10.696,2.586 C 251.954,3.563 242.116,0 232.026,0 c -26.802,0 -51.38,24.989 -69.206,70.365 -3.216,8.185 -6.156,16.879 -8.812,26.004 -9.23,-2.262 -18.229,-4.063 -26.926,-5.371 -48.209,-7.248 -82.14,1.541 -95.542,24.752 -13.4,23.211 -4.048,56.991 26.336,95.117 5.492,6.891 11.564,13.797 18.153,20.673 -8.116,8.455 -15.415,16.925 -21.773,25.305 C 52.27,256.298 50.183,256 48.026,256 c -12.958,0 -23.5,10.542 -23.5,23.5 0,6.448 2.612,12.297 6.832,16.547 -7.722,19.95 -7.677,37.587 0.183,51.203 10.338,17.905 32.886,27.229 64.788,27.228 9.453,0 19.734,-0.819 30.754,-2.477 8.696,-1.308 17.695,-3.108 26.926,-5.371 2.656,9.125 5.596,17.818 8.812,26.004 17.825,45.376 42.403,70.366 69.205,70.366 26.802,0 51.38,-24.99 69.206,-70.366 3.221,-8.199 6.166,-16.908 8.825,-26.05 12.229,3.009 24.007,5.198 35.142,6.49 2.51,10.276 11.789,17.927 22.827,17.927 11.237,0 20.652,-7.93 22.956,-18.487 19.723,-3.6 34.036,-12.287 41.528,-25.263 13.401,-23.211 4.049,-56.991 -26.335,-95.117 -5.481,-6.879 -11.539,-13.772 -18.114,-20.634 z M 339.199,105.832 c 41.085,-6.182 70.361,0.169 80.32,17.418 9.958,17.248 0.818,45.776 -25.075,78.269 -5.142,6.452 -10.823,12.924 -16.987,19.374 -15.384,-14.784 -33.069,-29.311 -52.48,-43.114 -2.276,-23.711 -6.038,-46.286 -11.114,-66.908 8.691,-2.12 17.158,-3.809 25.336,-5.039 z m -66.923,195.383 c -13.373,7.721 -26.836,14.775 -40.218,21.113 -13.433,-6.346 -26.929,-13.404 -40.282,-21.113 -13.383,-7.727 -26.234,-15.866 -38.423,-24.294 -1.204,-14.769 -1.827,-29.968 -1.827,-45.421 0,-15.439 0.622,-30.624 1.824,-45.38 12.221,-8.471 25.085,-16.633 38.426,-24.336 13.383,-7.727 26.857,-14.786 40.25,-21.128 13.393,6.341 26.867,13.401 40.25,21.128 13.375,7.722 26.218,15.855 38.399,24.277 1.215,14.78 1.851,29.993 1.851,45.439 0,15.453 -0.623,30.652 -1.827,45.421 -12.189,8.428 -25.04,16.567 -38.423,24.294 z m 36.476,-4.885 c -2.19,18.263 -5.31,35.688 -9.299,51.901 -16.001,-4.652 -32.673,-10.667 -49.597,-17.894 9.986,-5.009 19.981,-10.394 29.919,-16.131 9.955,-5.748 19.631,-11.722 28.977,-17.876 z m -94.477,34.018 c -16.936,7.247 -33.611,13.266 -49.668,17.923 -3.993,-16.224 -7.117,-33.663 -9.308,-51.942 9.346,6.154 19.022,12.129 28.977,17.876 9.939,5.738 19.966,11.123 29.999,16.143 z m -76.757,-64.817 c -14.716,-11.024 -28.241,-22.434 -40.284,-33.99 12.029,-11.53 25.574,-22.961 40.28,-33.999 -0.654,11.147 -0.988,22.489 -0.988,33.958 0,11.494 0.335,22.861 0.992,34.031 z m 17.776,-98.823 c 2.192,-18.292 5.317,-35.744 9.313,-51.979 16.047,4.654 32.712,10.668 49.637,17.909 -10.002,5.016 -20.015,10.409 -29.969,16.156 -9.933,5.735 -19.611,11.728 -28.981,17.914 z m 94.513,-34.07 c 16.916,-7.237 33.572,-13.249 49.611,-17.901 3.961,16.151 7.09,33.594 9.294,51.907 -9.333,-6.145 -18.996,-12.11 -28.936,-17.849 -9.955,-5.748 -19.967,-11.141 -29.969,-16.157 z m 76.702,64.812 c 14.743,11.042 28.291,22.473 40.352,34.05 -12.054,11.57 -25.594,22.995 -40.328,34.032 0.657,-11.17 0.993,-22.537 0.993,-34.031 0,-11.49 -0.348,-22.866 -1.017,-34.051 z M 280.526,31.5 c 0,4.687 -3.813,8.5 -8.5,8.5 -4.687,0 -8.5,-3.813 -8.5,-8.5 0,-4.687 3.813,-8.5 8.5,-8.5 4.687,0 8.5,3.813 8.5,8.5 z M 176.78,75.851 C 191.973,37.179 212.109,15 232.026,15 c 6.239,0 12.529,2.173 18.755,6.467 -1.444,3.045 -2.255,6.445 -2.255,10.033 0,12.958 10.542,23.5 23.5,23.5 1.855,0 3.658,-0.223 5.391,-0.631 6.989,13.04 13.078,28.54 18.132,45.882 -20.478,5.926 -41.882,13.971 -63.522,23.868 -21.644,-9.899 -43.05,-17.944 -63.53,-23.87 2.502,-8.564 5.267,-16.719 8.283,-24.398 z M 44.53,123.25 c 9.958,-17.249 39.235,-23.597 80.321,-17.418 8.159,1.227 16.604,2.911 25.272,5.023 -5.111,20.715 -8.849,43.294 -11.098,67.007 -19.344,13.794 -37.03,28.345 -52.385,43.081 C 80.458,214.476 74.761,207.988 69.606,201.519 43.712,169.026 34.572,140.498 44.53,123.25 Z M 48.026,271 c 4.687,0 8.5,3.813 8.5,8.5 0,4.687 -3.813,8.5 -8.5,8.5 -4.687,0 -8.5,-3.813 -8.5,-8.5 0,-4.687 3.813,-8.5 8.5,-8.5 z m 76.826,86.168 c -41.083,6.177 -70.362,-0.169 -80.321,-17.418 -6.524,-11.302 -3.874,-25.618 0.316,-36.971 1.041,0.141 2.101,0.221 3.179,0.221 12.958,0 23.5,-10.542 23.5,-23.5 0,-5.349 -1.8,-10.283 -4.821,-14.237 5.845,-7.651 12.521,-15.387 19.926,-23.121 15.364,14.761 33.021,29.265 52.4,43.048 2.249,23.693 5.985,46.254 11.093,66.954 -8.668,2.113 -17.114,3.797 -25.272,5.024 z M 287.27,387.149 C 272.077,425.82 251.942,448 232.026,448 c -19.917,0 -40.053,-22.18 -55.245,-60.851 -3.017,-7.679 -5.781,-15.835 -8.285,-24.398 20.493,-5.93 41.915,-13.982 63.573,-23.89 21.631,9.868 43.068,17.91 63.503,23.838 -2.509,8.582 -5.279,16.755 -8.302,24.45 z M 368.026,376 c -4.687,0 -8.5,-3.813 -8.5,-8.5 0,-4.687 3.813,-8.5 8.5,-8.5 4.687,0 8.5,3.813 8.5,8.5 0,4.687 -3.814,8.5 -8.5,8.5 z m 51.494,-36.25 c -5.18,8.972 -15.342,14.946 -30.207,17.81 -3.752,-8.002 -11.881,-13.56 -21.287,-13.56 -9.626,0 -17.915,5.82 -21.543,14.125 -10.313,-1.215 -21.218,-3.242 -32.547,-6.013 5.104,-20.691 8.837,-43.24 11.085,-66.921 19.394,-13.794 37.065,-28.311 52.437,-43.083 6.164,6.45 11.845,12.922 16.987,19.374 25.893,32.492 35.033,61.02 25.075,78.268 z"
   id="path6" />
</g>
<path
   style="fill:#e6e6e6;stroke-width:0.592073"
   d="m 223.211,461.72123 c -5.67136,-1.21269 -11.63527,-3.7886 -17.21848,-7.43698 -5.68433,-3.71446 -15.86512,-13.73309 -20.92505,-20.5918 -10.47287,-14.19587 -19.93416,-33.81711 -27.68074,-57.40552 -1.75996,-5.35907 -3.25691,-9.80076 -3.32658,-9.87043 -0.0697,-0.0697 -2.25697,0.38885 -4.86067,1.01893 -16.66787,4.03353 -36.31752,6.48737 -52.050111,6.50001 -19.559806,0.0157 -33.152404,-2.54154 -45.047067,-8.47498 -12.251147,-6.11127 -21.320782,-16.88052 -24.667498,-29.29006 -0.952529,-3.53196 -1.249543,-6.4106 -1.269846,-12.30723 -0.02916,-8.46813 0.909601,-14.13527 3.75165,-22.64818 l 1.691982,-5.06806 -2.353992,-3.28731 c -4.093559,-5.71659 -5.318981,-13.31713 -3.278668,-20.33555 1.821387,-6.26535 8.294709,-12.88496 14.671416,-15.00296 3.113385,-1.0341 9.6514,-1.42985 12.343063,-0.74714 1.322553,0.33545 1.984584,-0.25758 6.216752,-5.56877 2.605116,-3.26932 7.467501,-8.96573 10.805309,-12.6587 3.337801,-3.69297 6.068732,-6.94257 6.068732,-7.22135 0,-0.27876 -0.695282,-1.15276 -1.545066,-1.94221 C 72.525032,227.51462 63.103468,216.7411 58.524357,211.07353 42.348704,191.05291 31.161453,169.93096 27.165258,151.86637 c -1.545772,-6.98758 -1.413397,-19.19967 0.272396,-25.12954 6.516757,-22.92306 27.570392,-35.896612 60.945938,-37.555772 17.851178,-0.887415 40.637218,1.504616 60.815888,6.384307 2.6037,0.629639 4.791,1.087801 4.86067,1.018137 0.0697,-0.06967 1.56662,-4.511363 3.32658,-9.870431 7.75659,-23.618898 17.17727,-43.180694 27.65199,-57.418641 4.99017,-6.782969 15.2268,-16.836349 20.9538,-20.5786807 17.13053,-11.194031 36.05711,-11.0115656 52.8109,0.5091345 l 2.43641,1.6753912 3.0466,-1.1576189 c 4.23025,-1.6073688 11.34454,-1.5759484 15.74246,0.069527 13.62775,5.0987929 19.30895,21.7001029 11.59032,33.8686019 l -1.79374,2.827843 3.48378,6.949712 c 4.32557,8.628965 10.40502,23.913387 13.70832,34.464295 1.37635,4.396133 2.66569,8.158922 2.8652,8.361757 0.19951,0.202834 3.02708,-0.253759 6.28347,-1.014653 16.9651,-3.964096 35.43676,-6.227176 50.91816,-6.238317 21.28196,-0.01528 36.01085,3.177036 48.53874,10.520291 5.78754,3.392387 13.33037,10.817007 16.45627,16.198377 15.06966,25.94309 1.15949,65.5972 -38.24908,109.0377 -3.15007,3.47234 -5.72739,6.49284 -5.72739,6.71221 0,0.21937 2.57732,3.23987 5.72739,6.71221 17.18915,18.94778 30.60692,38.8183 37.44843,55.45777 10.47452,25.47542 8.82656,46.0683 -4.88531,61.0464 -3.75651,4.1034 -11.12773,9.3119 -16.5711,11.70911 -4.30999,1.89809 -13.50496,4.83858 -16.83482,5.38368 -1.78202,0.29172 -2.51799,0.69909 -2.52209,1.39601 -0.0128,2.17497 -3.10351,7.427 -6.18274,10.50623 -1.84044,1.84044 -4.75193,3.96072 -6.67822,4.86339 -3.03174,1.42069 -4.11328,1.60039 -9.63197,1.60039 -5.59087,0 -6.55199,-0.16469 -9.54656,-1.6359 -5.24862,-2.57859 -8.47672,-5.80613 -10.98621,-10.9843 -1.21276,-2.50242 -2.21783,-4.58864 -2.2335,-4.63603 -0.0157,-0.0473 -3.09246,-0.53181 -6.83732,-1.0765 -3.74485,-0.54469 -11.33816,-1.93399 -16.87404,-3.08734 -5.53587,-1.15335 -10.40892,-2.13429 -10.82902,-2.17989 -0.48782,-0.0529 -2.11374,3.98169 -4.49999,11.16646 -8.53305,25.6923 -19.24913,46.62224 -31.22335,60.98338 -15.58572,18.69254 -33.86235,26.81704 -51.73152,22.99616 z m 13.32161,-13.84562 c 15.09585,-2.39155 30.43122,-17.74504 43.14158,-43.19257 5.52952,-11.07069 8.0294,-17.17535 12.59429,-30.75495 3.71574,-11.05355 3.90131,-11.8763 2.6788,-11.8763 -1.41606,0 -20.60812,-6.37571 -30.90785,-10.26776 -5.52239,-2.0868 -14.83649,-5.86136 -20.698,-8.38792 -5.86151,-2.52656 -10.92372,-4.59375 -11.24936,-4.59375 -0.32564,0 -5.38785,2.06833 -11.24936,4.5963 -13.87897,5.98575 -27.66419,11.18868 -40.87141,15.42602 -5.85135,1.87732 -10.88113,3.62705 -11.17728,3.88828 -1.2781,1.12738 8.16859,26.99357 14.7867,40.48781 12.83029,26.16083 28.41005,42.10127 43.6271,44.63711 4.34079,0.72337 4.98059,0.72596 9.32479,0.0377 z m 135.21936,-72.43522 c 5.26303,-2.19904 6.61348,-9.17492 2.65004,-13.68903 -4.77399,-5.43728 -13.7922,-2.79001 -15.00788,4.40552 -0.33839,2.00288 -0.1487,3.01747 0.97052,5.19105 2.26183,4.39261 6.78146,6.01691 11.38732,4.09246 z M 119.30243,358.21545 c 16.08896,-2.19331 30.78772,-5.32266 30.78772,-6.55467 0,-0.44649 -0.78854,-4.35249 -1.75232,-8.68002 -3.42052,-15.35871 -6.57232,-34.71251 -8.34436,-51.239 l -0.71437,-6.66234 -10.38241,-7.79171 c -14.32631,-10.7515 -34.935788,-28.06196 -40.337169,-33.88029 -0.789456,-0.8504 -1.629726,-1.54617 -1.867279,-1.54617 -0.582535,0 -10.030074,10.53894 -15.674952,17.48578 l -4.566425,5.61963 1.802488,3.3971 c 4.959714,9.34746 3.41095,20.00786 -3.980642,27.39946 -1.555981,1.55598 -3.923613,3.38745 -5.261405,4.06994 -3.453368,1.76178 -8.834988,3.07892 -11.882456,2.90822 -3.05303,-0.17102 -2.926216,-0.38573 -5.131489,8.68829 -3.562721,14.65948 -0.866533,27.14624 7.542552,34.93158 7.696109,7.12524 17.775391,10.81387 35.422364,12.96322 4.380651,0.53356 27.851303,-0.22444 34.340153,-1.10902 z M 348.032,355.96268 c 2.09829,-3.58046 6.95542,-7.92824 10.93032,-9.78411 2.91754,-1.36218 4.16297,-1.58152 9.01019,-1.58678 5.07279,-0.005 6.00587,0.17452 9.5097,1.83486 4.25833,2.01786 9.36003,6.66083 10.59501,9.64232 0.71665,1.73016 0.92465,1.83585 2.91502,1.48121 4.15017,-0.73948 13.61966,-4.19261 16.99887,-6.19877 7.76269,-4.60856 13.32467,-12.02182 14.98184,-19.96847 4.36236,-20.91889 -10.64374,-51.73466 -41.85333,-85.94787 l -3.4911,-3.82708 -6.4562,5.90701 c -7.04488,6.44563 -15.79106,13.97634 -22.73817,19.57823 -4.60625,3.71431 -21.65767,16.6034 -22.88386,17.29781 -0.40536,0.22955 -1.09394,3.87209 -1.64167,8.68441 -2.28535,20.07872 -7.24749,48.62521 -10.14699,58.37415 -0.22993,0.77311 1.08266,1.24331 7.27879,2.6074 6.19052,1.36285 22.09356,4.17473 24.82116,4.38871 0.37611,0.0295 1.3528,-1.08785 2.17042,-2.48303 z M 178.70622,344.07075 c 12.21269,-4.0601 30.86518,-11.07954 34.49502,-12.98139 1.55846,-0.81656 1.45461,-0.89131 -8.30495,-5.9773 -14.88296,-7.75596 -32.35969,-18.00027 -48.41444,-28.37902 -0.55506,-0.35882 -1.12586,-0.52928 -1.26846,-0.37879 -0.6598,0.69637 4.0233,29.30318 7.0719,43.19882 1.88987,8.61413 1.97089,8.88108 2.69517,8.88108 0.33043,0 6.50703,-1.96354 13.72576,-4.3634 z m 122.29572,-1.11327 c 3.44686,-14.9388 8.51376,-45.48056 7.68307,-46.31126 -0.19075,-0.19075 -4.97988,2.5617 -10.64251,6.11657 -12.5379,7.87098 -26.7436,16.04607 -39.26218,22.59458 -10.99105,5.74946 -11.42739,4.50882 3.6767,10.45417 9.36396,3.6859 35.17942,12.57504 36.61418,12.60751 0.3669,0.008 1.23574,-2.44941 1.93074,-5.46157 z m -59.57685,-24.78836 c 19.73815,-9.86747 42.09855,-22.77932 59.72045,-34.48517 l 9.84632,-6.54069 0.328,-4.17137 c 0.18039,-2.29427 0.6591,-12.60691 1.06377,-22.91701 0.6978,-17.77776 0.27867,-41.26567 -1.06618,-59.74956 l -0.32641,-4.48625 -9.8459,-6.52139 c -12.22769,-8.09897 -27.3809,-17.20623 -40.92967,-24.59922 -13.19641,-7.20073 -26.94945,-14.08145 -28.1457,-14.08145 -1.18213,0 -21.71132,10.36362 -32.54164,16.42779 -14.39955,8.06266 -22.76447,13.16017 -37.3842,22.78159 l -8.96477,5.89983 -0.3791,4.23663 c -1.9342,21.61543 -1.93263,61.48306 0.003,83.10914 l 0.38237,4.27149 9.84961,6.44714 c 11.33482,7.4193 23.13729,14.63317 34.03965,20.80563 10.87178,6.15515 33.64236,17.75972 34.87699,17.77436 0.57421,0.007 4.83713,-1.88386 9.47315,-4.20149 z M 52.610715,286.91915 c 5.515121,-3.63604 5.248926,-12.38656 -0.459208,-15.09525 -4.267086,-2.02486 -9.145114,-0.626 -11.632972,3.33597 -1.80189,2.86955 -1.345467,7.5434 0.976276,9.99723 0.949529,1.00355 2.259281,2.04649 2.91056,2.31765 2.170543,0.90372 6.429254,0.61536 8.205344,-0.5556 z M 137.36061,231.5 c 0,-18.72426 -0.13321,-34.04071 -0.29603,-34.03654 -1.21222,0.031 -35.51944,28.89056 -39.267608,33.03224 -1.038983,1.14806 -0.909534,1.31216 5.929128,7.51624 10.7344,9.73836 32.18265,27.43888 33.33848,27.51315 0.16282,0.0105 0.29603,-15.30083 0.29603,-34.02509 z m 197.95875,27.68816 c 13.6095,-10.70274 31.469,-26.41651 31.469,-27.68816 0,-1.27165 -17.8595,-16.98542 -31.469,-27.68816 -4.4452,-3.49578 -8.17524,-6.35596 -8.289,-6.35596 -0.11376,0 -0.20683,15.31986 -0.20683,34.04412 0,18.72426 0.0931,34.04412 0.20683,34.04412 0.11376,0 3.8438,-2.86018 8.289,-6.35596 z M 93.149749,215.35836 c 12.351111,-11.29962 25.476221,-22.08857 39.243821,-32.25874 l 6.87438,-5.07812 0.71994,-6.7128 c 1.77835,-16.58159 4.92564,-35.91375 8.34994,-51.28946 0.96378,-4.32753 1.75232,-8.23353 1.75232,-8.68002 0,-1.28359 -18.31425,-5.06135 -33.74808,-6.96136 -9.30835,-1.14592 -31.992933,-0.9609 -39.347404,0.32093 -19.919241,3.47178 -32.046548,12.20314 -35.531185,25.58157 -1.161693,4.46004 -1.168047,13.75281 -0.01316,19.24297 3.843093,18.26943 17.31342,40.87829 38.493586,64.60839 3.439743,3.85387 6.396612,7.00703 6.570821,7.00703 0.17421,0 3.159964,-2.60118 6.635016,-5.78039 z m 290.675931,-0.88042 c 37.97713,-42.34437 49.80174,-79.1637 31.23133,-97.24776 -4.67007,-4.54776 -8.9974,-7.09417 -16.17552,-9.51847 -9.6157,-3.24755 -15.7612,-4.05033 -31.20502,-4.07629 -13.72486,-0.0231 -19.7676,0.47021 -33.15601,2.70654 -6.61517,1.10497 -20.49841,4.01 -20.90064,4.3734 -0.098,0.0885 0.35098,2.25664 0.99766,4.81805 3.07351,12.17376 7.17027,36.2703 9.24375,54.37036 0.52094,4.54752 1.00093,8.29412 1.06663,8.32578 1.23496,0.59502 16.14373,11.86379 23.50629,17.76718 9.1016,7.2978 25.90736,21.92787 27.75183,24.15906 0.44693,0.54063 1.00458,0.98296 1.23923,0.98296 0.23465,0 3.11486,-2.99736 6.40047,-6.66081 z M 161.75656,162.91585 c 13.3603,-8.64388 34.12515,-20.60026 46.98113,-27.05169 5.35099,-2.68526 5.96957,-3.14818 4.96434,-3.71511 -5.46216,-3.08056 -48.3069,-18.28373 -49.15006,-17.44057 -0.99553,0.99553 -5.87894,25.76375 -7.90987,40.11825 -0.66806,4.72177 -1.34316,9.31773 -1.50022,10.21323 -0.15705,0.89551 -0.038,1.6282 0.26472,1.6282 0.30264,0 3.16013,-1.68854 6.34996,-3.75231 z m 147.00558,2.42015 c -0.0137,-5.67133 -7.94239,-49.3391 -9.20321,-50.68701 -0.86328,-0.92291 -47.23042,15.61803 -49.60043,17.69438 -0.26828,0.23504 3.46177,2.49058 8.289,5.01232 12.79952,6.68643 27.31181,15.04799 39.19598,22.5836 5.73857,3.63876 10.63358,6.64133 10.87781,6.67239 0.24423,0.0311 0.44261,-0.543 0.44085,-1.27568 z m -47.06649,-53.291 c 5.53587,-2.1214 15.26065,-5.52925 21.61062,-7.57299 6.34996,-2.04375 11.77527,-3.91588 12.05625,-4.16031 0.5607,-0.487777 -4.32241,-15.75412 -8.03447,-25.118607 -1.29082,-3.256389 -3.96507,-9.32081 -5.94277,-13.476478 l -3.59581,-7.555764 -3.62187,0.371071 c -9.40628,0.963702 -18.80663,-4.484927 -23.01095,-13.337608 -2.31223,-4.868682 -2.86039,-11.439646 -1.34167,-16.082887 0.54924,-1.679224 0.86157,-3.410302 0.69405,-3.846841 -0.38328,-0.998827 -6.72521,-4.226448 -10.68455,-5.437729 -4.61459,-1.41174 -11.67001,-1.229613 -16.84658,0.434876 -19.49019,6.266933 -38.73827,34.119067 -52.12394,75.423801 -1.35665,4.186255 -2.38032,7.870306 -2.27482,8.186795 0.10549,0.316481 6.44609,2.653521 14.09022,5.193421 14.29552,4.74994 27.72499,9.9061 41.48366,15.92737 l 7.85549,3.43782 9.81096,-4.26442 c 5.39603,-2.34544 14.34032,-6.00012 19.87618,-8.12152 z m 14.60149,-73.039535 c 3.8661,-1.945871 5.419,-6.305362 3.7773,-10.604086 -1.17377,-3.07349 -3.59204,-5.010128 -6.79208,-5.439343 -8.53269,-1.144473 -13.39491,8.943876 -7.18025,14.897896 2.74901,2.633719 6.41898,3.046083 10.19503,1.145533 z"
   id="path242" /><path
   style="fill:#e6e6e6;stroke-width:0.592073"
   d="m 224.69117,286.21312 c -4.64767,-0.59831 -12.82139,-3.07886 -16.87404,-5.12094 -14.50753,-7.31014 -25.57291,-21.10893 -29.41742,-36.68422 -1.8205,-7.37541 -1.82748,-18.56819 -0.0161,-25.81592 6.75236,-27.01769 32.74003,-45.18883 59.87369,-41.86497 12.39329,1.51816 23.12307,6.6716 32.06411,15.40017 11.21704,10.95048 16.7017,23.88006 16.7017,39.37276 0,15.29311 -5.43746,28.28107 -16.37081,39.10346 -12.24961,12.12528 -28.95499,17.79889 -45.96112,15.60966 z m 20.1875,-16.0944 c 6.45013,-2.21545 11.47375,-5.3717 16.25477,-10.21258 15.37562,-15.56814 15.37562,-41.27239 0,-56.80176 -4.92,-4.96918 -9.52037,-7.89611 -16.02148,-10.19346 -4.38024,-1.54788 -5.36719,-1.66962 -13.31592,-1.64252 -7.73223,0.0263 -9.01644,0.18394 -12.92784,1.5864 -6.3266,2.26844 -10.44887,4.91733 -15.47643,9.9449 -8.09412,8.09411 -11.3115,15.48645 -11.71824,26.92409 -0.29713,8.35523 0.60855,13.14159 3.69398,19.522 5.07932,10.50362 14.73815,18.5068 26.16979,21.68397 6.07055,1.68716 17.19321,1.30069 23.34137,-0.81104 z"
   id="path244" /><path
   style="fill:#e6e6e6;stroke-width:0.592073"
   d="m 246.15879,238.49444 c -2.1034,-0.42264 -4.8039,-3.53055 -5.19725,-5.98135 -0.69772,-4.34718 -0.94085,-4.94885 -2.81927,-6.97669 -1.56608,-1.69065 -2.56899,-2.17225 -5.62765,-2.70245 -6.31702,-1.09499 -9.2883,-5.60899 -6.82124,-10.3629 1.64684,-3.17338 4.42686,-4.51137 8.39463,-4.04026 11.77809,1.39845 20.67394,10.79133 20.93155,22.10104 0.12033,5.28242 -3.95835,8.94766 -8.86077,7.96261 z"
   id="path246" /><path
   style="fill:#e6e6e6;stroke-width:0.217819"
   d="m 28.914546,304.56523 c 0.05508,-0.14975 0.708873,-2.10422 1.452862,-4.34329 l 1.352709,-4.071 -1.752815,-2.48046 c -3.253888,-4.60465 -4.559472,-8.30176 -4.748454,-13.44651 -0.242237,-6.59448 1.642085,-11.57938 6.181521,-16.35297 3.154012,-3.31668 7.384503,-5.94425 10.657563,-6.61943 3.680553,-0.75922 7.516043,-0.90579 11.015948,-0.42097 0.987482,0.13679 1.046193,0.11167 2.152445,-0.92094 0.625498,-0.58387 2.373629,-2.58087 3.884735,-4.43778 3.342628,-4.10756 6.958687,-8.3465 11.063628,-12.9694 4.127095,-4.64784 5.953005,-6.86654 5.953005,-7.2336 0,-0.16714 -0.761039,-1.10535 -1.6912,-2.08493 C 70.139285,224.65845 62.158248,215.44329 57.707798,209.86848 42.809543,191.20633 31.934696,170.91979 27.783941,154.04687 26.704277,149.658 26.441659,147.45049 26.310049,141.65763 26.073687,131.25408 27.023724,126.2224 30.609818,118.8848 39.208241,101.29135 57.764592,91.439647 86.1234,89.412239 c 4.014094,-0.286973 16.12215,-0.285364 20.86748,0.0029 13.0215,0.790665 26.11867,2.622224 38.29431,5.355214 8.08122,1.813942 8.60753,1.915923 8.81383,1.707828 0.11021,-0.111166 1.5196,-4.122859 3.13197,-8.914874 1.61237,-4.792015 3.53695,-10.330063 4.27684,-12.306766 4.93691,-13.189591 10.34647,-24.759548 16.19283,-34.633212 3.04581,-5.143941 8.69654,-13.371693 9.35776,-13.625393 0.1462,-0.05609 4.44386,-0.0764 9.55037,-0.04514 l 9.28456,0.05684 -2.40832,2.613826 c -10.93926,11.872758 -20.34011,28.38632 -28.54976,50.150607 -2.77143,7.347249 -6.45238,18.76142 -6.45238,20.008065 0,0.381336 3.21058,1.596216 14.04932,5.316276 18.01546,6.18324 27.70718,9.92669 43.12354,16.65656 6.28495,2.74364 6.31547,2.75417 7.07912,2.44164 0.42183,-0.17264 4.07316,-1.74235 8.11408,-3.48825 15.38186,-6.6458 25.54614,-10.50271 42.94318,-16.29509 5.73619,-1.90989 10.71064,-3.61792 11.05431,-3.79564 0.34367,-0.17772 0.62485,-0.50033 0.62485,-0.71691 0,-0.703691 -1.68944,-6.562267 -3.27479,-11.356128 -2.15183,-6.506898 -4.44643,-12.663872 -6.53516,-17.535547 -1.88997,-4.408084 -7.26154,-15.957966 -7.70144,-16.559577 -0.23993,-0.328127 -0.52764,-0.335361 -3.26528,-0.08208 -5.02,0.464436 -8.74552,-0.241988 -13.03522,-2.471724 -6.08202,-3.161366 -10.28018,-8.539643 -11.97324,-15.33899 -0.38957,-1.564526 -0.48101,-2.573599 -0.49016,-5.408477 -0.006,-1.916806 0.0592,-3.656634 0.14531,-3.866285 0.1448,-0.352633 0.71898,-0.381183 7.66607,-0.381183 h 7.50954 l -0.56794,1.240545 c -1.86646,4.076877 0.0668,9.125679 4.32976,11.307596 0.89812,0.459681 1.56484,0.617514 2.92566,0.692585 2.98395,0.164614 5.59797,-0.860325 7.49894,-2.940268 2.34752,-2.568569 2.68875,-6.000731 0.98619,-9.919275 -0.15593,-0.35887 0.27472,-0.381183 7.35677,-0.381183 h 7.52237 l 0.17903,1.252459 c 0.0985,0.688852 0.16968,2.477689 0.15822,3.975194 -0.0334,4.371356 -1.22185,8.160317 -3.85635,12.294903 -0.68286,1.071678 -1.24157,2.028176 -1.24157,2.125549 0,0.09737 1.11491,2.406145 2.47759,5.130606 5.42002,10.836591 10.0614,22.353166 14.70939,36.498291 1.21327,3.692361 2.3522,7.063371 2.53095,7.491143 l 0.32496,0.777765 1.31915,-0.137882 c 0.72554,-0.07583 3.74984,-0.675152 6.72066,-1.331819 16.80757,-3.71513 31.13498,-5.473806 46.52027,-5.71033 16.17782,-0.248706 27.4563,1.064038 37.76014,4.395051 4.92604,1.592483 10.96885,4.371548 14.55762,6.694991 4.93819,3.19709 11.63664,9.79771 14.61915,14.40564 2.8118,4.34418 5.03787,10.50985 6.06567,16.8004 0.53862,3.29662 0.5413,11.49826 0.005,15.33246 -1.80354,12.89417 -6.94126,26.23394 -15.78074,40.97372 -7.2032,12.0113 -14.88031,22.17274 -27.70665,36.67255 -2.93194,3.31448 -5.47359,6.26163 -5.64808,6.54922 -0.30427,0.50147 -0.25408,0.59726 1.2251,2.33836 0.84829,0.99851 2.98795,3.43278 4.75483,5.40949 19.02555,21.2851 32.07198,41.31863 38.62023,59.30343 0.70836,1.94551 1.44805,4.09728 1.64376,4.78169 0.19571,0.68441 0.41415,1.39635 0.48541,1.58208 0.11578,0.30166 -0.66537,0.33157 -7.32244,0.28036 l -7.45203,-0.0574 -0.8197,-2.17819 c -5.5197,-14.66748 -16.09747,-31.38963 -30.86354,-48.79142 -4.43279,-5.22404 -10.65054,-12.08895 -10.94932,-12.08895 -0.0908,0 -2.05076,1.71578 -4.35533,3.81283 -11.5114,10.47489 -20.43965,18.10615 -28.67588,24.51022 -4.42316,3.43921 -17.19157,13.0574 -18.36448,13.83359 -1.22876,0.81315 -1.50202,1.94184 -2.52924,10.44662 -0.62155,5.14599 -1.17318,9.34182 -1.3245,10.07412 l -0.10124,0.49009 h -7.07497 c -5.51572,0 -7.07457,-0.06 -7.07315,-0.27227 0,-0.14975 0.14611,-1.35048 0.32248,-2.66828 0.31741,-2.37165 0.43634,-5.33656 0.21405,-5.33656 -0.46807,0 -5.40341,2.85558 -11.63031,6.72927 l -2.48812,1.54784 h -13.94997 -13.94999 l 4.7848,-2.75198 c 11.38187,-6.54635 20.77601,-12.37196 32.90596,-20.40608 l 6.77491,-4.48727 0.14073,-1.91476 c 0.275,-3.74186 0.57788,-9.42384 0.90476,-16.97299 1.07339,-24.78949 0.80506,-45.72977 -0.90414,-70.55602 l -0.13577,-1.97185 -6.47305,-4.28423 c -14.45211,-9.56521 -26.68305,-17.02359 -41.06211,-25.03952 -12.68167,-7.06969 -29.27775,-15.48049 -31.1432,-15.78321 -0.89212,-0.14477 -2.9216,0.77087 -13.39622,6.04401 -21.45454,10.80065 -36.75246,19.72642 -59.27601,34.58533 l -6.66823,4.39906 -0.13791,1.57548 c -1.30866,14.95003 -1.78097,29.92615 -1.58844,50.36692 0.15905,16.8866 0.44788,24.31385 1.37875,35.45513 l 0.35985,4.30702 7.96902,5.19596 c 12.40443,8.08795 22.60915,14.39367 32.25093,19.92858 l 4.02476,2.31042 h -13.90485 -13.90486 l -2.53558,-1.56688 c -1.39458,-0.8618 -4.25092,-2.66081 -6.34742,-3.99782 -2.09651,-1.33702 -4.1434,-2.60152 -4.54865,-2.81004 -1.23995,-0.63797 -1.25575,-0.4511 -0.47328,5.59755 l 0.35926,2.77719 h -7.12464 -7.12464 l -0.12544,-0.81682 c -0.33047,-2.15205 -0.8525,-6.4108 -1.52328,-12.42713 -0.40475,-3.63028 -0.77159,-6.62905 -0.8152,-6.66399 -0.0436,-0.0349 -3.22938,-2.42688 -7.07949,-5.31546 -16.24196,-12.18566 -33.272427,-26.26314 -42.054067,-34.76212 -1.684487,-1.63028 -3.207942,-2.96413 -3.385468,-2.96413 -0.798802,0 -9.766314,9.98316 -17.526147,19.51113 l -2.851664,3.50143 1.609122,3.25095 c 1.833781,3.70482 2.589854,6.10405 2.911581,9.23918 0.433311,4.22253 -0.291898,8.07884 -2.273752,12.09073 -1.787527,3.61852 -4.407042,6.65363 -7.844198,9.08873 -3.299765,2.33777 -9.195816,4.08931 -13.76544,4.08931 -1.010487,0 -2.00927,0.0921 -2.219518,0.20458 -0.210247,0.11253 -0.561755,0.60262 -0.781127,1.0891 l -0.398859,0.88451 h -7.396267 c -5.825054,0 -7.374791,-0.0578 -7.29591,-0.27227 z m 22.677661,-17.05515 c 1.391259,-0.49029 3.36128,-2.42267 4.124657,-4.04585 1.735529,-3.69029 1.047101,-7.88172 -1.708148,-10.39985 -1.46889,-1.34249 -3.127476,-2.01047 -5.344709,-2.15255 -2.808993,-0.18001 -5.133824,0.74023 -7.052718,2.79169 -2.535726,2.71089 -2.976979,6.6289 -1.137039,10.09613 0.815775,1.53727 3.01742,3.46684 4.504086,3.94751 1.296712,0.41923 5.142665,0.28137 6.613871,-0.23708 z m 85.750003,-55.54092 c 0.0233,-29.86604 -0.0369,-34.51636 -0.44647,-34.51636 -1.06656,0 -35.92417,29.32762 -38.939646,32.76205 -0.384985,0.43847 -0.699969,0.99571 -0.699969,1.23832 0,0.6108 1.585283,2.23826 6.534565,6.70841 9.30299,8.40239 27.76669,23.79582 32.01938,26.69501 l 1.198,0.81671 0.1547,-0.94733 c 0.0851,-0.52103 0.16583,-15.26159 0.17944,-32.75681 z m 195.70284,29.10165 c 8.29003,-6.44284 17.87596,-14.44646 25.81153,-21.55097 2.90645,-2.60206 7.59816,-7.19701 7.87309,-7.7107 0.16228,-0.30323 0.0613,-0.58047 -0.44326,-1.21759 -1.69222,-2.13659 -12.25406,-11.55972 -22.02369,-19.64921 -6.91189,-5.72322 -16.82757,-13.48954 -17.22283,-13.48954 -0.23135,0 -0.28968,67.79989 -0.0585,68.03105 0.16606,0.16608 0.25469,0.10156 6.06366,-4.41304 z M 88.878863,219.28914 c 1.197677,-1.04825 4.13613,-3.67054 6.529892,-5.82732 12.587425,-11.34127 24.281305,-20.87082 38.223385,-31.14893 3.05476,-2.25196 5.58855,-4.12216 5.63063,-4.15598 0.0421,-0.0338 0.40216,-2.98396 0.80016,-6.55586 2.05315,-18.42598 4.23323,-31.88968 8.30881,-51.31341 1.46834,-6.99798 1.80826,-8.94493 1.60453,-9.1904 -0.88838,-1.07044 -12.60963,-3.67862 -25.48787,-5.6715 -10.45065,-1.61721 -16.11442,-1.95857 -29.628283,-1.78575 -13.037177,0.16672 -16.784861,0.51768 -23.707602,2.22013 -5.168799,1.27112 -8.869686,2.63127 -13.103786,4.81588 -6.828344,3.52314 -12.07269,8.65823 -14.793754,14.48558 -2.053042,4.39674 -2.667587,7.70714 -2.664197,14.3514 0.0025,5.03049 0.232676,7.48839 1.037951,11.0868 3.59409,16.06033 15.423637,36.75873 32.628363,57.09051 4.914681,5.80796 11.930011,13.50477 12.309034,13.50477 0.07433,0 1.11506,-0.85766 2.312737,-1.90592 z m 288.887817,1.70955 c 0.95385,-0.51058 10.9503,-11.8063 15.8257,-17.8826 20.29708,-25.29664 30.78935,-48.07847 30.09523,-65.34565 -0.26241,-6.5277 -1.79039,-11.5306 -4.98948,-16.33642 -2.23828,-3.36245 -7.59078,-8.10787 -11.73823,-10.40686 -4.46459,-2.47478 -13.37192,-5.35823 -19.65733,-6.36339 -5.33512,-0.8532 -7.89159,-0.97449 -20.49559,-0.97239 -13.37341,0.002 -15.94086,0.14866 -24.83135,1.41621 -7.8874,1.12455 -18.56743,3.12801 -25.64866,4.81143 l -2.8248,0.67153 0.14066,0.902 c 0.0774,0.49609 0.57413,2.71607 1.10389,4.93329 3.2778,13.7187 6.76924,34.64578 9.28474,55.65107 0.67461,5.63324 0.72793,5.90171 1.26492,6.37009 0.30837,0.26894 2.76606,2.12319 5.46157,4.12055 6.35813,4.71135 13.32723,10.06798 17.97006,13.81222 8.35864,6.7409 20.89704,17.5753 25.63018,22.14701 1.5194,1.46755 2.82533,2.66828 2.90209,2.66828 0.0768,0 0.30464,-0.0884 0.5064,-0.19637 z M 157.56879,165.61685 c 1.03104,-0.61792 3.83499,-2.36553 6.231,-3.88357 13.59414,-8.61289 28.35158,-17.11297 42.91032,-24.71575 6.02794,-3.14787 7.51475,-4.03999 7.51475,-4.50905 0,-1.23748 -45.83189,-17.82685 -49.25072,-17.82685 -0.56631,0 -0.64362,0.10835 -1.04919,1.47028 -1.53562,5.15672 -5.27427,24.66305 -7.19109,37.5193 -1.68354,11.29163 -1.82505,12.3565 -1.68911,12.71076 0.20747,0.54064 0.48633,0.45612 2.52404,-0.76512 z m 151.05724,0.77895 c 0.42231,-1.10049 -0.16354,-6.02473 -2.07096,-17.4077 -2.75279,-16.42783 -6.22665,-33.67504 -6.92298,-34.37134 -0.37478,-0.37479 -7.31383,1.71859 -17.4498,5.26424 -19.59561,6.85474 -32.38724,11.83724 -32.17631,12.53308 0.13204,0.43557 3.05337,2.23711 7.45592,4.59795 17.4278,9.34555 24.70676,13.54317 40.51431,23.36376 4.91182,3.05151 9.22463,5.73023 9.58403,5.95271 0.80118,0.49596 0.89894,0.50213 1.06579,0.0673 z"
   id="path250" /><path
   style="fill:#e6e6e6;stroke-width:0.0269824"
   d="m 153.66457,96.538608 c -0.65493,-0.101953 -2.29269,-0.463544 -4.7489,-1.048481 -5.02967,-1.19781 -9.51425,-2.121327 -14.53,-2.99219 -10.75807,-1.867875 -21.75503,-3.036753 -31.87966,-3.388523 -2.13943,-0.07434 -2.768049,-0.08561 -5.565113,-0.09986 l -3.001791,-0.01528 v -0.223161 -0.223154 l 0.317045,-0.02002 c 0.405877,-0.02564 5.150904,0.0046 6.374589,0.0404 5.46971,0.160615 10.072,0.465795 15.51485,1.028809 11.55283,1.195032 24.16644,3.43531 37.25511,6.616808 l 0.59955,0.145735 0.0267,-0.08377 c 0.0147,-0.04607 0.1373,-0.460181 0.27247,-0.920235 2.74989,-9.359615 5.75867,-18.096685 9.20118,-26.718937 l 0.44425,-1.112676 0.22261,-3.48e-4 c 0.12243,-1.91e-4 0.2226,0.01 0.2226,0.02257 0,0.01256 -0.13513,0.355601 -0.30029,0.762248 -1.11458,2.7443 -2.44275,6.213605 -3.59374,9.387209 -1.15726,3.190886 -1.75105,4.913125 -3.16304,9.174004 -1.30639,3.942254 -2.73457,8.20388 -3.02278,9.019836 -0.14294,0.404668 -0.22357,0.596373 -0.25878,0.615211 -0.0612,0.03276 -0.2741,0.05139 -0.38686,0.03386 z"
   id="path258" /><path
   style="fill:#e6e6e6;stroke-width:0.0199341"
   d="m 55.466696,95.805355 v -0.226297 l 0.09469,-0.04046 c 0.696174,-0.297338 1.818055,-0.744683 2.679989,-1.068639 8.843358,-3.323767 19.334411,-5.272094 31.242904,-5.802223 1.262046,-0.0562 2.401413,-0.09276 3.8124,-0.122406 l 0.642876,-0.01348 v 0.230632 c 0,0.223328 0.0012,0.23091 0.04485,0.239273 0.02465,0.0046 -0.174922,0.0099 -0.443537,0.01146 -1.175146,0.0068 -3.358804,0.07625 -5.1131,0.162617 -12.592211,0.619905 -23.537953,2.867307 -32.542455,6.681692 -0.180902,0.07663 -0.349097,0.147159 -0.373765,0.15672 l -0.04485,0.01742 z"
   id="path260" /><path
   style="fill:#e6e6e6;stroke-width:0.0156544"
   d="m 31.796728,115.30631 c 0.335953,-0.57933 1.060335,-1.71242 1.543698,-2.41469 2.457995,-3.57115 5.465921,-6.783 8.981214,-9.59009 3.422378,-2.7329 7.273819,-5.066374 11.670498,-7.070823 0.546908,-0.249337 1.432497,-0.63718 1.454908,-0.63718 0.0047,0 0.0086,0.100673 0.0086,0.223727 v 0.223727 l -0.301347,0.131151 c -1.222332,0.531993 -2.775559,1.277336 -3.961754,1.901124 -7.130696,3.749834 -12.812553,8.593664 -17.042378,14.528764 -0.594904,0.83474 -1.365268,2.00488 -1.770077,2.68864 l -0.05329,0.09 h -0.286609 -0.286608 z"
   id="path262" /><path
   style="fill:#e6e6e6;stroke-width:0.0156544"
   d="m 26.704931,128.2933 c 0.03133,-0.19593 0.334885,-1.44707 0.504,-2.07729 0.813502,-3.03162 1.954418,-5.98545 3.359788,-8.69851 0.355843,-0.68696 0.623239,-1.1729 1.117591,-2.03102 l 0.06079,-0.10552 0.285693,-1.4e-4 c 0.15713,-9e-5 0.285692,0.003 0.285692,0.007 0,0.004 -0.05856,0.10425 -0.130138,0.22308 -1.009551,1.6761 -2.04593,3.74259 -2.883656,5.74988 -0.900924,2.15873 -1.803496,4.89675 -2.175098,6.59833 -0.03949,0.18081 -0.07527,0.34459 -0.07951,0.36397 -0.0074,0.034 -0.014,0.0352 -0.181621,0.0352 h -0.173901 z"
   id="path266" /><path
   style="fill:#e6e6e6;stroke-width:0.01253"
   d="m 25.737501,143.53417 c -0.0073,-0.0458 -0.04823,-0.67451 -0.07606,-1.16842 -0.102311,-1.81587 -0.115801,-3.86684 -0.03713,-5.64477 0.126213,-2.85234 0.457335,-5.483 1.034895,-8.2219 l 0.02821,-0.13379 0.176149,-0.004 c 0.09688,-0.002 0.177079,-0.004 0.178216,-0.004 0.0012,3e-5 -0.01454,0.0818 -0.03485,0.18174 -0.745653,3.67016 -1.078182,9.30861 -0.856421,14.52167 0.0101,0.23743 0.01836,0.45028 0.01836,0.47301 v 0.0413 h -0.212442 -0.212442 z"
   id="path268" /><path
   style="fill:#e6e6e6;stroke-width:0.01253"
   d="m 27.342041,153.99044 c -0.0092,-0.0317 -0.199464,-0.89837 -0.252408,-1.14963 -0.648865,-3.07922 -1.066859,-5.8754 -1.309009,-8.75667 -0.02077,-0.2471 -0.03776,-0.46278 -0.03776,-0.47927 v -0.03 h 0.212242 0.212242 l 0.0066,0.0532 c 0.0036,0.0293 0.0099,0.13219 0.01401,0.22867 0.05011,1.18066 0.207535,3.03908 0.369891,4.3667 0.228705,1.87019 0.483676,3.23034 1.0027,5.34896 0.05469,0.22323 0.09943,0.41353 0.09943,0.42289 0,0.0134 -0.03293,0.017 -0.155781,0.017 -0.13759,0 -0.156522,-0.002 -0.162131,-0.0219 z"
   id="path270" /><path
   style="fill:#e6e6e6;stroke-width:0.01253"
   d="m 31.627079,167.62934 c -1.548918,-3.94601 -2.714152,-7.48055 -3.671224,-11.13603 -0.195026,-0.74489 -0.615201,-2.46642 -0.604594,-2.47712 0.0013,-0.001 0.07274,-0.003 0.158691,-0.005 l 0.156265,-0.002 0.05373,0.21153 c 1.098454,4.32486 2.490914,8.56521 4.291086,13.06729 0.151557,0.37904 0.27829,0.69621 0.281629,0.70482 0.0047,0.0122 -0.05133,0.0157 -0.255363,0.0157 H 31.77586 Z"
   id="path272" /></svg>
